<?xml version="1.0" standalone="no"?>
<!DOCTYPE svg PUBLIC "-//W3C//DTD SVG 20010904//EN"
 "http://www.w3.org/TR/2001/REC-SVG-20010904/DTD/svg10.dtd">
<svg version="1.0" xmlns="http://www.w3.org/2000/svg"
 width="200.000000pt" height="200.000000pt" viewBox="0 0 200.000000 200.000000"
 preserveAspectRatio="xMidYMid meet">
<metadata>
Created by potrace 1.16, written by Peter Selinger 2001-2019
</metadata>
<g transform="translate(0.000000,200.000000) scale(0.100000,-0.100000)"
fill="#000000" stroke="none">
<path d="M0 1000 l0 -1000 1000 0 1000 0 0 1000 0 1000 -1000 0 -1000 0 0
-1000z m1169 665 c179 -43 317 -190 368 -393 13 -50 17 -110 17 -237 -1 -151
-4 -181 -27 -270 -52 -195 -146 -343 -264 -412 -37 -21 -60 -27 -106 -28 -53
0 -61 3 -87 31 -15 17 -29 37 -31 43 -3 8 -24 0 -61 -22 -98 -59 -219 -71
-289 -30 -63 37 -87 140 -54 232 8 23 10 39 5 36 -22 -14 -105 -22 -136 -13
-38 10 -64 49 -64 95 0 16 17 65 39 108 47 98 56 136 76 306 26 227 74 349
175 443 120 110 275 149 439 111z"/>
<path d="M1034 1292 c-34 -22 -46 -123 -21 -172 23 -45 87 -39 107 10 17 40 8
125 -15 150 -18 20 -51 26 -71 12z"/>
<path d="M1264 1292 c-34 -22 -46 -123 -21 -172 19 -38 68 -39 97 -3 18 23 21
37 18 85 -3 37 -11 64 -23 78 -18 20 -51 26 -71 12z"/>
</g>
</svg>
