<?xml version="1.0" encoding="UTF-8"?>
<svg version="1.1" xmlns="http://www.w3.org/2000/svg" width="2050" height="2366">
<path d="M0 0 C1.30947601 -0.00095673 2.61895203 -0.00191345 3.96810913 -0.00289917 C6.71605636 -0.0043589 9.46397071 -0.00227722 12.21191406 0.00244141 C15.70240701 0.00814899 19.1928232 0.00484211 22.68331337 -0.00113106 C26.05971479 -0.00564789 29.43609641 -0.00247047 32.8125 0 C34.04924469 -0.00202423 35.28598938 -0.00404846 36.56021118 -0.00613403 C43.69203255 0.01294202 50.6832258 0.38220693 57.7734375 1.1328125 C60.10616405 1.30776699 62.43944027 1.47571653 64.7734375 1.6328125 C73.91856886 2.24835019 83.02489441 3.07276378 92.10546875 4.32421875 C93.01907669 4.44970596 93.93268463 4.57519318 94.87397766 4.70448303 C109.08913274 6.6974116 123.25989558 8.99635299 137.43286133 11.26635742 C140.78976357 11.80386326 144.14717907 12.33796254 147.50512695 12.86889648 C183.2588644 18.52282128 183.2588644 18.52282128 198.7734375 22.1328125 C198.7734375 22.7928125 198.7734375 23.4528125 198.7734375 24.1328125 C200.11148437 24.20628906 200.11148437 24.20628906 201.4765625 24.28125 C203.23226563 24.39339844 203.23226563 24.39339844 205.0234375 24.5078125 C206.18359375 24.57742187 207.34375 24.64703125 208.5390625 24.71875 C211.54318116 25.10333524 213.19111833 25.67396985 215.7734375 27.1328125 C217.68004734 27.62590125 219.587854 28.11529453 221.50390625 28.5703125 C227.2010396 29.98233867 232.78969237 31.7821478 238.3359375 33.6953125 C242.74685031 35.1918722 247.2105739 36.21592501 251.7734375 37.1328125 C251.7734375 37.7928125 251.7734375 38.4528125 251.7734375 39.1328125 C254.4134375 39.4628125 257.0534375 39.7928125 259.7734375 40.1328125 C259.7734375 40.7928125 259.7734375 41.4528125 259.7734375 42.1328125 C262.0834375 42.1328125 264.3934375 42.1328125 266.7734375 42.1328125 C266.7734375 42.7928125 266.7734375 43.4528125 266.7734375 44.1328125 C267.7840625 44.2565625 268.7946875 44.3803125 269.8359375 44.5078125 C273.65281362 45.11366585 277.08843862 46.00475162 280.7734375 47.1328125 C280.7734375 47.7928125 280.7734375 48.4528125 280.7734375 49.1328125 C281.6396875 49.2565625 282.5059375 49.3803125 283.3984375 49.5078125 C286.66857603 50.11339371 289.64600649 51.01587285 292.7734375 52.1328125 C292.7734375 52.7928125 292.7734375 53.4528125 292.7734375 54.1328125 C294.7534375 54.1328125 296.7334375 54.1328125 298.7734375 54.1328125 C298.7734375 54.7928125 298.7734375 55.4528125 298.7734375 56.1328125 C299.49015625 56.24882812 300.206875 56.36484375 300.9453125 56.484375 C303.9041089 57.16277307 306.29318074 58.19058336 309.0234375 59.5078125 C313.86403103 61.77376198 318.67311565 63.54418766 323.7734375 65.1328125 C323.7734375 65.7928125 323.7734375 66.4528125 323.7734375 67.1328125 C325.4234375 67.1328125 327.0734375 67.1328125 328.7734375 67.1328125 C328.7734375 67.7928125 328.7734375 68.4528125 328.7734375 69.1328125 C329.41796875 69.2153125 330.0625 69.2978125 330.7265625 69.3828125 C334.93945548 70.41983231 338.6274912 72.24940434 342.5234375 74.1328125 C343.35166016 74.52855469 344.17988281 74.92429687 345.03320312 75.33203125 C351.5862277 78.49143626 358.03297442 81.83485426 364.42871094 85.30078125 C367.18910847 86.79347059 369.78913082 88.13804361 372.7734375 89.1328125 C372.7734375 89.7928125 372.7734375 90.4528125 372.7734375 91.1328125 C374.0934375 91.1328125 375.4134375 91.1328125 376.7734375 91.1328125 C376.7734375 91.7928125 376.7734375 92.4528125 376.7734375 93.1328125 C377.7634375 93.1328125 378.7534375 93.1328125 379.7734375 93.1328125 C379.7734375 93.7928125 379.7734375 94.4528125 379.7734375 95.1328125 C381.0934375 95.1328125 382.4134375 95.1328125 383.7734375 95.1328125 C383.7734375 95.7928125 383.7734375 96.4528125 383.7734375 97.1328125 C384.7634375 97.1328125 385.7534375 97.1328125 386.7734375 97.1328125 C386.7734375 97.7928125 386.7734375 98.4528125 386.7734375 99.1328125 C387.670625 99.349375 387.670625 99.349375 388.5859375 99.5703125 C390.33494154 100.0200564 392.06020773 100.56173591 393.7734375 101.1328125 C393.7734375 101.7928125 393.7734375 102.4528125 393.7734375 103.1328125 C394.34578125 103.25527344 394.918125 103.37773437 395.5078125 103.50390625 C397.87296941 104.16044118 399.84550547 105.07004762 402.0234375 106.1953125 C402.72984375 106.55753906 403.43625 106.91976562 404.1640625 107.29296875 C404.69515625 107.57011719 405.22625 107.84726563 405.7734375 108.1328125 C405.7734375 108.7928125 405.7734375 109.4528125 405.7734375 110.1328125 C406.7634375 110.1328125 407.7534375 110.1328125 408.7734375 110.1328125 C408.7734375 110.7928125 408.7734375 111.4528125 408.7734375 112.1328125 C409.60101562 112.28943359 409.60101562 112.28943359 410.4453125 112.44921875 C413.26932259 113.27841634 415.49898666 114.560809 418.0234375 116.0703125 C418.91546875 116.59496094 419.8075 117.11960937 420.7265625 117.66015625 C421.40203125 118.14613281 422.0775 118.63210937 422.7734375 119.1328125 C422.7734375 119.7928125 422.7734375 120.4528125 422.7734375 121.1328125 C423.7634375 121.1328125 424.7534375 121.1328125 425.7734375 121.1328125 C425.7734375 121.7928125 425.7734375 122.4528125 425.7734375 123.1328125 C426.2890625 123.2153125 426.8046875 123.2978125 427.3359375 123.3828125 C430.81799482 124.45421475 433.64544635 126.26804855 436.7734375 128.1328125 C436.7734375 128.7928125 436.7734375 129.4528125 436.7734375 130.1328125 C437.7634375 130.1328125 438.7534375 130.1328125 439.7734375 130.1328125 C439.7734375 130.7928125 439.7734375 131.4528125 439.7734375 132.1328125 C442.10557898 133.33909258 444.26985889 134.2982863 446.7734375 135.1328125 C446.7734375 135.7928125 446.7734375 136.4528125 446.7734375 137.1328125 C447.794375 137.473125 447.794375 137.473125 448.8359375 137.8203125 C452.4723084 139.44507396 455.80173013 141.46084507 458.7734375 144.1328125 C458.7734375 144.7928125 458.7734375 145.4528125 458.7734375 146.1328125 C459.7634375 146.1328125 460.7534375 146.1328125 461.7734375 146.1328125 C461.7734375 146.7928125 461.7734375 147.4528125 461.7734375 148.1328125 C463.0934375 148.4628125 464.4134375 148.7928125 465.7734375 149.1328125 C465.7734375 149.7928125 465.7734375 150.4528125 465.7734375 151.1328125 C467.4234375 151.7928125 469.0734375 152.4528125 470.7734375 153.1328125 C470.7734375 153.7928125 470.7734375 154.4528125 470.7734375 155.1328125 C472.0934375 155.4628125 473.4134375 155.7928125 474.7734375 156.1328125 C474.7734375 156.7928125 474.7734375 157.4528125 474.7734375 158.1328125 C475.60875 158.535 475.60875 158.535 476.4609375 158.9453125 C478.98569084 160.24180746 481.41058234 161.55757573 483.7734375 163.1328125 C483.7734375 163.7928125 483.7734375 164.4528125 483.7734375 165.1328125 C484.3921875 165.4421875 485.0109375 165.7515625 485.6484375 166.0703125 C487.0234375 166.7578125 488.3984375 167.4453125 489.7734375 168.1328125 C489.7734375 168.7928125 489.7734375 169.4528125 489.7734375 170.1328125 C490.3921875 170.4421875 491.0109375 170.7515625 491.6484375 171.0703125 C493.0234375 171.7578125 494.3984375 172.4453125 495.7734375 173.1328125 C495.7734375 173.7928125 495.7734375 174.4528125 495.7734375 175.1328125 C496.35609375 175.4009375 496.93875 175.6690625 497.5390625 175.9453125 C499.80130351 177.14762241 501.57920068 178.47107163 503.5234375 180.1328125 C504.13703125 180.6484375 504.750625 181.1640625 505.3828125 181.6953125 C506.7734375 183.1328125 506.7734375 183.1328125 506.7734375 185.1328125 C507.3921875 185.4421875 508.0109375 185.7515625 508.6484375 186.0703125 C510.0234375 186.7578125 511.3984375 187.4453125 512.7734375 188.1328125 C512.7734375 188.7928125 512.7734375 189.4528125 512.7734375 190.1328125 C513.36253906 190.40480469 513.95164062 190.67679688 514.55859375 190.95703125 C519.97500072 193.83240779 524.6506759 198.63525439 528.7734375 203.1328125 C528.7734375 203.7928125 528.7734375 204.4528125 528.7734375 205.1328125 C529.4334375 205.1328125 530.0934375 205.1328125 530.7734375 205.1328125 C532.3984375 206.5078125 532.3984375 206.5078125 533.7734375 208.1328125 C533.7734375 208.7928125 533.7734375 209.4528125 533.7734375 210.1328125 C534.7634375 210.4628125 535.7534375 210.7928125 536.7734375 211.1328125 C536.7734375 211.7928125 536.7734375 212.4528125 536.7734375 213.1328125 C537.4334375 213.1328125 538.0934375 213.1328125 538.7734375 213.1328125 C540.3984375 214.5078125 540.3984375 214.5078125 541.7734375 216.1328125 C541.7734375 216.7928125 541.7734375 217.4528125 541.7734375 218.1328125 C542.4334375 218.1328125 543.0934375 218.1328125 543.7734375 218.1328125 C545.13520672 219.77632707 546.46305816 221.44803906 547.7734375 223.1328125 C548.918125 224.2775 548.918125 224.2775 550.0859375 225.4453125 C552.25755946 227.61693446 554.26727914 229.81332789 556.2734375 232.1328125 C558.26004556 234.42902182 560.24865171 236.60802671 562.3984375 238.7578125 C565.04932116 241.40869616 567.37418168 244.25370552 569.7734375 247.1328125 C571.0728125 248.4321875 571.0728125 248.4321875 572.3984375 249.7578125 C577.7734375 255.1328125 577.7734375 255.1328125 577.7734375 258.1328125 C578.7634375 258.4628125 579.7534375 258.7928125 580.7734375 259.1328125 C582.4296875 260.92578125 582.4296875 260.92578125 584.2734375 263.3203125 C585.33111328 264.6815625 585.33111328 264.6815625 586.41015625 266.0703125 C587.19003906 267.0809375 587.96992187 268.0915625 588.7734375 269.1328125 C589.63231596 270.21757236 590.49305098 271.30086438 591.35546875 272.3828125 C598.05610395 280.80376638 604.4864889 289.39954791 610.7734375 298.1328125 C611.59038086 299.26396484 611.59038086 299.26396484 612.42382812 300.41796875 C614.10903059 302.7560668 615.7863051 305.09963505 617.4609375 307.4453125 C617.99066162 308.18112549 618.52038574 308.91693848 619.06616211 309.67504883 C619.55093018 310.35849365 620.03569824 311.04193848 620.53515625 311.74609375 C620.96787842 312.35235596 621.40060059 312.95861816 621.84643555 313.58325195 C622.7734375 315.1328125 622.7734375 315.1328125 622.7734375 317.1328125 C623.4334375 317.1328125 624.0934375 317.1328125 624.7734375 317.1328125 C626.20030203 319.27310929 627.49836833 321.40357253 628.7734375 323.6328125 C629.58059666 325.01255899 630.38924249 326.39143664 631.19921875 327.76953125 C631.62025879 328.48802246 632.04129883 329.20651367 632.47509766 329.94677734 C634.57623613 333.48449714 636.76797565 336.96403758 638.9609375 340.4453125 C650.1013934 358.19816803 660.43915963 376.36415727 669.7734375 395.1328125 C670.32 396.20273437 670.8665625 397.27265625 671.4296875 398.375 C680.20649893 415.61182245 688.26935326 433.14893357 695.05151367 451.26708984 C696.20903163 454.25855155 697.5004681 457.18884664 698.7734375 460.1328125 C699.96124263 463.38364759 700.7734375 465.67198361 700.7734375 469.1328125 C701.4334375 469.4628125 702.0934375 469.7928125 702.7734375 470.1328125 C703.49755859 471.83886719 703.49755859 471.83886719 704.171875 474.0546875 C705.2254553 477.40135433 706.31721021 480.72000909 707.5 484.0234375 C711.41566673 495.05530406 715.1067562 506.14389094 718.5859375 517.3203125 C719.14498779 519.10840332 719.14498779 519.10840332 719.71533203 520.93261719 C721.71361608 527.41006353 723.53506156 533.8966256 725.12402344 540.48681641 C725.76887004 543.11420266 726.47736475 545.7164573 727.2109375 548.3203125 C730.31828421 559.62715001 732.8142869 571.06781349 735.0546875 582.57421875 C735.74837121 586.0087071 736.52533866 589.41174438 737.3359375 592.8203125 C738.75653528 598.89281595 739.81804845 604.97195811 740.7734375 611.1328125 C741.01248269 612.6394084 741.25210876 614.1459122 741.4921875 615.65234375 C742.78776513 623.79690873 744.06771782 631.94396447 745.3046875 640.09765625 C745.62553501 642.17514385 745.9595131 644.2506343 746.3046875 646.32421875 C747.40446477 653.04418136 748.07080749 659.67790366 748.4921875 666.47265625 C748.78925656 670.33867993 749.25821593 674.16651837 749.7734375 678.0078125 C750.65682635 684.65163278 751.12176081 691.26679807 751.4921875 697.9609375 C751.77590347 702.57575509 752.25911904 707.16367224 752.7734375 711.7578125 C752.85658203 712.50401855 752.93972656 713.25022461 753.02539062 714.01904297 C753.37656593 717.06694046 753.7671445 720.09549353 754.27734375 723.12109375 C754.91077056 726.96654312 755.31477293 730.81919315 755.7109375 734.6953125 C755.79520996 735.51451172 755.87948242 736.33371094 755.96630859 737.17773438 C756.14488243 738.92452322 756.32225961 740.67143476 756.49853516 742.41845703 C756.68327907 744.24259806 756.8704924 746.06649052 757.06005859 747.89013672 C758.99032654 766.48166486 758.99032654 766.48166486 758.77197266 774.38574219 C758.77356289 777.36796177 759.00908407 780.27529099 759.26953125 783.24609375 C759.94485219 792.29350369 759.84794722 801.31568952 759.7734375 810.3828125 C759.74686043 813.700517 759.72693701 817.0181672 759.7109375 820.3359375 C759.70263916 821.091026 759.69434082 821.8461145 759.68579102 822.62408447 C759.58915172 826.50559243 759.58915172 826.50559243 760.7734375 830.1328125 C760.91320421 834.25593047 760.80442476 837.91934472 760.2109375 842.0078125 C759.48657118 845.03150043 759.48657118 845.03150043 760.7734375 847.1328125 C760.52680604 848.89886993 760.27975163 850.66486881 760.03125 852.43066406 C759.37690455 859.28889838 759.72789819 866.25979726 759.79394531 873.14599609 C759.85818833 880.49844023 759.8660967 887.74712307 758.99609375 895.0625 C758.68571697 897.94845953 758.71419045 900.79590997 758.7734375 903.6953125 C758.80754168 907.35724899 758.76544971 910.87922242 758.2734375 914.5078125 C757.73802918 918.54568358 757.74082985 922.49843189 757.7734375 926.5703125 C757.80774013 931.5245924 757.64056042 936.29351766 757.0625 941.20703125 C756.65185454 945.36342926 756.4321358 949.52506213 756.2109375 953.6953125 C756.16718994 954.48711914 756.12344238 955.27892578 756.07836914 956.09472656 C755.83645837 960.7888664 755.76086309 965.45670207 755.78491211 970.15649414 C755.77140291 972.48323826 755.59283414 974.75824277 755.3359375 977.0703125 C754.75118903 982.90132541 754.44290098 988.73532994 754.16625977 994.58764648 C753.98601539 998.16295331 753.72879429 1001.68286535 753.2421875 1005.23046875 C752.78840558 1009.00820325 752.70762596 1012.582196 752.7734375 1016.3828125 C752.81953514 1023.03404409 752.41044339 1029.51842256 751.7734375 1036.1328125 C751.51536153 1039.39648095 751.27132853 1042.66103253 751.02734375 1045.92578125 C750.86537806 1047.97153245 750.68734756 1050.01611892 750.48828125 1052.05859375 C749.86669154 1058.52837962 749.73298372 1064.92314012 749.79272461 1071.41674805 C749.81747173 1075.62123401 749.56658937 1079.63653299 748.9921875 1083.79296875 C748.59378843 1088.05441599 748.75758437 1092.33032589 748.8359375 1096.60546875 C748.78018653 1099.7519143 748.42153755 1102.72925764 747.99609375 1105.84106445 C747.53279662 1110.60967208 747.71446768 1115.40991198 747.7734375 1120.1953125 C747.79915877 1122.29031027 747.8201155 1124.38537283 747.8359375 1126.48046875 C747.84753906 1127.39836182 747.85914063 1128.31625488 747.87109375 1129.26196289 C747.7734375 1132.1328125 747.7734375 1132.1328125 747.27542114 1135.13345337 C746.55261156 1140.07495929 746.63395578 1145.00882943 746.64404297 1149.9934082 C746.64141449 1151.59946175 746.64141449 1151.59946175 746.63873291 1153.23796082 C746.63434696 1156.76152182 746.63723987 1160.28503228 746.640625 1163.80859375 C746.63995127 1166.26002512 746.63898067 1168.71145643 746.63772583 1171.16288757 C746.63625348 1176.29129678 746.63838948 1181.41968853 746.64306641 1186.5480957 C746.64877848 1193.13360378 746.64547243 1199.71907123 746.63949394 1206.30457783 C746.63588867 1211.36159067 746.6370265 1216.41859379 746.63962173 1221.47560692 C746.64029032 1223.90499056 746.63946496 1226.33437508 746.63714218 1228.76375771 C746.63461462 1232.14892559 746.63845708 1235.53402658 746.64404297 1238.91918945 C746.64201874 1239.92958282 746.63999451 1240.9399762 746.63790894 1241.98098755 C746.64072876 1242.8991777 746.64354858 1243.81736786 746.64645386 1244.76338196 C746.64683088 1245.56362447 746.64720791 1246.36386698 746.64759636 1247.18835926 C746.65227194 1249.2142441 746.65227194 1249.2142441 747.7734375 1251.1328125 C747.79435623 1253.95086381 747.76630216 1256.75367014 747.7109375 1259.5703125 C747.62136782 1268.03666491 748.28230351 1276.24484681 749.26953125 1284.64453125 C749.73919002 1288.65666165 750.03719052 1292.66193223 750.2734375 1296.6953125 C751.06663696 1309.59524063 752.69118844 1322.38105471 754.7734375 1335.1328125 C755.88309493 1342.04994716 756.94139064 1348.93045809 757.52734375 1355.9140625 C757.79891194 1358.36248682 758.26989773 1360.72170238 758.7734375 1363.1328125 C759.28086138 1365.89192984 759.77705591 1368.65293989 760.2734375 1371.4140625 C764.1480244 1392.48212875 769.03610543 1413.49554343 774.7734375 1434.1328125 C775.11890625 1435.37546875 775.464375 1436.618125 775.8203125 1437.8984375 C777.74505825 1444.67125237 779.83599614 1451.36900217 782.09375 1458.0390625 C782.70827026 1459.85519043 782.70827026 1459.85519043 783.33520508 1461.70800781 C784.15836643 1464.12655644 784.9887467 1466.54266208 785.8269043 1468.95605469 C786.20758057 1470.07141602 786.58825684 1471.18677734 786.98046875 1472.3359375 C787.49830933 1473.83108887 787.49830933 1473.83108887 788.02661133 1475.35644531 C788.76136791 1478.08794313 788.92085191 1480.32069787 788.7734375 1483.1328125 C789.4334375 1483.4628125 790.0934375 1483.7928125 790.7734375 1484.1328125 C791.37890625 1485.75 791.37890625 1485.75 791.9609375 1488.0078125 C793.67455781 1494.11533103 795.90351332 1499.99727648 798.17260742 1505.91552734 C799.71540861 1510.00546639 801.05535146 1514.05921789 802.1484375 1518.29296875 C804.02822509 1525.41384846 806.67562123 1532.25108903 809.2734375 1539.1328125 C812.21709768 1546.93069089 815.02924045 1554.67089871 817.11572266 1562.75097656 C818.0523866 1566.14299344 819.33795933 1569.2665643 820.7109375 1572.5078125 C833.78778464 1604.29074726 834.24435427 1635.87309944 828.8984375 1669.2578125 C828.76969238 1670.06662872 828.64094727 1670.87544495 828.50830078 1671.70877075 C827.11237659 1680.37817732 825.59323849 1688.79291038 822.7734375 1697.1328125 C822.49242187 1698.12410156 822.21140625 1699.11539062 821.921875 1700.13671875 C819.53704224 1708.02593822 815.85134855 1714.96822085 811.89453125 1722.15234375 C809.94013204 1725.72886815 808.31643011 1729.36160052 806.7734375 1733.1328125 C806.1134375 1733.1328125 805.4534375 1733.1328125 804.7734375 1733.1328125 C804.7734375 1734.1228125 804.7734375 1735.1128125 804.7734375 1736.1328125 C804.1134375 1736.1328125 803.4534375 1736.1328125 802.7734375 1736.1328125 C802.37125 1737.2465625 802.37125 1737.2465625 801.9609375 1738.3828125 C800.82066999 1741.02343199 799.67963444 1742.98834094 797.7734375 1745.1328125 C797.1134375 1745.1328125 796.4534375 1745.1328125 795.7734375 1745.1328125 C795.7734375 1746.1228125 795.7734375 1747.1128125 795.7734375 1748.1328125 C795.1134375 1748.1328125 794.4534375 1748.1328125 793.7734375 1748.1328125 C793.4434375 1749.4528125 793.1134375 1750.7728125 792.7734375 1752.1328125 C792.1134375 1752.1328125 791.4534375 1752.1328125 790.7734375 1752.1328125 C790.7734375 1752.7928125 790.7734375 1753.4528125 790.7734375 1754.1328125 C789.3984375 1755.7578125 789.3984375 1755.7578125 787.7734375 1757.1328125 C787.1134375 1757.1328125 786.4534375 1757.1328125 785.7734375 1757.1328125 C785.37125 1758.091875 785.37125 1758.091875 784.9609375 1759.0703125 C783.7734375 1761.1328125 783.7734375 1761.1328125 780.7734375 1762.1328125 C780.4434375 1763.1228125 780.1134375 1764.1128125 779.7734375 1765.1328125 C779.1134375 1765.1328125 778.4534375 1765.1328125 777.7734375 1765.1328125 C777.7734375 1765.7928125 777.7734375 1766.4528125 777.7734375 1767.1328125 C776.9690625 1767.4009375 776.1646875 1767.6690625 775.3359375 1767.9453125 C774.4903125 1768.3371875 773.6446875 1768.7290625 772.7734375 1769.1328125 C772.4434375 1770.1228125 772.1134375 1771.1128125 771.7734375 1772.1328125 C769.734375 1773.81640625 769.734375 1773.81640625 767.1484375 1775.5703125 C766.31054688 1776.14652344 765.47265625 1776.72273438 764.609375 1777.31640625 C749.21222426 1787.17821768 733.5403328 1794.51987097 715.73168945 1798.66162109 C713.78928385 1799.12899958 711.86108697 1799.65418579 709.93359375 1800.1796875 C705.11835626 1801.38466789 700.27279287 1801.83522428 695.3359375 1802.2578125 C694.37308838 1802.34200439 693.41023926 1802.42619629 692.41821289 1802.51293945 C672.85238379 1804.11143902 654.083231 1802.37490032 634.7734375 1799.1328125 C634.7734375 1798.4728125 634.7734375 1797.8128125 634.7734375 1797.1328125 C634.06058594 1797.08382813 633.34773438 1797.03484375 632.61328125 1796.984375 C627.06148003 1796.55099079 622.11231304 1795.78301039 616.7734375 1794.1328125 C613.45022509 1793.412293 610.11453031 1792.76472945 606.7734375 1792.1328125 C606.7734375 1791.4728125 606.7734375 1790.8128125 606.7734375 1790.1328125 C605.6596875 1790.0503125 604.5459375 1789.9678125 603.3984375 1789.8828125 C599.02943785 1789.34342983 595.3491303 1787.90062618 591.31640625 1786.1875 C587.53911453 1784.62088131 583.66740781 1783.37436825 579.7734375 1782.1328125 C579.7734375 1781.4728125 579.7734375 1780.8128125 579.7734375 1780.1328125 C578.1234375 1780.1328125 576.4734375 1780.1328125 574.7734375 1780.1328125 C574.7734375 1779.4728125 574.7734375 1778.8128125 574.7734375 1778.1328125 C574.05067627 1778.01365479 573.32791504 1777.89449707 572.58325195 1777.77172852 C569.72754012 1777.12237602 567.44767606 1776.1845626 564.81640625 1774.91015625 C563.87547119 1774.45745361 562.93453613 1774.00475098 561.96508789 1773.53833008 C560.97371826 1773.05388428 559.98234863 1772.56943848 558.9609375 1772.0703125 C557.94443115 1771.57877686 556.9279248 1771.08724121 555.88061523 1770.58081055 C547.4747154 1766.50532307 539.10703336 1762.35403885 530.7734375 1758.1328125 C530.7734375 1757.4728125 530.7734375 1756.8128125 530.7734375 1756.1328125 C529.7834375 1756.1328125 528.7934375 1756.1328125 527.7734375 1756.1328125 C527.7734375 1755.4728125 527.7734375 1754.8128125 527.7734375 1754.1328125 C527.2371875 1754.0296875 526.7009375 1753.9265625 526.1484375 1753.8203125 C523.14841706 1752.95188553 520.535484 1751.57660954 517.7734375 1750.1328125 C517.7734375 1749.4728125 517.7734375 1748.8128125 517.7734375 1748.1328125 C517.20109375 1748.01035156 516.62875 1747.88789062 516.0390625 1747.76171875 C513.67390559 1747.10518382 511.70136953 1746.19557738 509.5234375 1745.0703125 C508.81703125 1744.70808594 508.110625 1744.34585937 507.3828125 1743.97265625 C506.58617187 1743.55693359 506.58617187 1743.55693359 505.7734375 1743.1328125 C505.7734375 1742.4728125 505.7734375 1741.8128125 505.7734375 1741.1328125 C505.1134375 1740.9059375 504.4534375 1740.6790625 503.7734375 1740.4453125 C499.88685122 1738.744931 496.13663933 1736.73658166 492.7734375 1734.1328125 C492.7734375 1733.4728125 492.7734375 1732.8128125 492.7734375 1732.1328125 C491.7834375 1732.1328125 490.7934375 1732.1328125 489.7734375 1732.1328125 C489.7734375 1731.4728125 489.7734375 1730.8128125 489.7734375 1730.1328125 C488.5978125 1729.66875 488.5978125 1729.66875 487.3984375 1729.1953125 C484.7734375 1728.1328125 484.7734375 1728.1328125 482.7734375 1727.1328125 C483.00160156 1727.90367188 483.22976563 1728.67453125 483.46484375 1729.46875 C483.75230469 1730.47164062 484.03976562 1731.47453125 484.3359375 1732.5078125 C484.62597656 1733.50554687 484.91601562 1734.50328125 485.21484375 1735.53125 C485.7734375 1738.1328125 485.7734375 1738.1328125 484.7734375 1740.1328125 C485.4334375 1740.4628125 486.0934375 1740.7928125 486.7734375 1741.1328125 C487.52048195 1743.67941746 488.14674337 1746.16970167 488.7109375 1748.7578125 C488.96653442 1749.89295288 488.96653442 1749.89295288 489.22729492 1751.05102539 C489.7533216 1753.40942338 490.26483448 1755.77060136 490.7734375 1758.1328125 C491.01658691 1759.24197021 491.01658691 1759.24197021 491.26464844 1760.37353516 C493.96414883 1772.75138985 493.96414883 1772.75138985 492.7734375 1775.1328125 C493.4334375 1775.4628125 494.0934375 1775.7928125 494.7734375 1776.1328125 C495.3359375 1778.6171875 495.3359375 1778.6171875 495.7734375 1781.8828125 C495.93714844 1783.04941406 496.10085938 1784.21601562 496.26953125 1785.41796875 C496.51896484 1787.25681641 496.51896484 1787.25681641 496.7734375 1789.1328125 C497.12163372 1791.52952082 497.47550132 1793.92541435 497.8359375 1796.3203125 C498.06990234 1797.91939453 498.06990234 1797.91939453 498.30859375 1799.55078125 C498.64392211 1802.1084997 498.64392211 1802.1084997 499.7734375 1804.1328125 C500.12462381 1806.88328004 500.43358524 1809.62480813 500.7109375 1812.3828125 C501.29964688 1818.01154376 501.96337701 1823.60180904 502.8359375 1829.1953125 C503.82011478 1835.83082027 504.22170763 1842.43286133 504.5546875 1849.125 C504.71957627 1852.39071378 505.0022655 1855.62951053 505.3359375 1858.8828125 C505.94860048 1865.61267969 505.82411594 1872.34986697 505.73657227 1879.10058594 C505.72811279 1879.98004883 505.71965332 1880.85951172 505.7109375 1881.765625 C505.69933594 1882.55855957 505.68773437 1883.35149414 505.67578125 1884.16845703 C505.64534678 1886.21184035 505.64534678 1886.21184035 506.7734375 1888.1328125 C506.52911494 1889.71766589 506.28258259 1891.30220071 506.02685547 1892.88525391 C505.36983019 1898.7123972 505.78296799 1904.67986256 505.90039062 1910.53320312 C505.96755315 1917.01636174 505.40255762 1922.99247067 504.20922852 1929.36157227 C503.81634776 1931.85994174 503.69711518 1934.09710645 503.765625 1936.6171875 C503.90683152 1942.31166128 502.86987336 1947.78844426 501.8984375 1953.3828125 C501.63740234 1954.97609375 501.63740234 1954.97609375 501.37109375 1956.6015625 C500.55774112 1961.39733058 499.63099898 1965.6279257 497.7734375 1970.1328125 C497.2303816 1972.58199462 496.73364148 1975.04171942 496.2734375 1977.5078125 C495.34190473 1982.47936238 494.21660442 1987.28448726 492.7734375 1992.1328125 C492.43207823 1993.46411365 492.09417794 1994.79639398 491.7734375 1996.1328125 C491.1134375 1996.1328125 490.4534375 1996.1328125 489.7734375 1996.1328125 C489.8353125 1996.9371875 489.8971875 1997.7415625 489.9609375 1998.5703125 C489.72204343 2003.10929983 488.35300486 2006.90182851 486.7734375 2011.1328125 C486.1134375 2011.1328125 485.4534375 2011.1328125 484.7734375 2011.1328125 C484.83144531 2011.82632813 484.88945313 2012.51984375 484.94921875 2013.234375 C484.72946016 2016.85794993 483.55036688 2019.25160924 481.9609375 2022.5078125 C481.41566406 2023.64347656 480.87039063 2024.77914062 480.30859375 2025.94921875 C479.80199219 2026.99980469 479.29539062 2028.05039063 478.7734375 2029.1328125 C477.74261905 2031.45498594 476.75451253 2033.78913326 475.7734375 2036.1328125 C475.1134375 2036.1328125 474.4534375 2036.1328125 473.7734375 2036.1328125 C473.7734375 2037.4528125 473.7734375 2038.7728125 473.7734375 2040.1328125 C473.1134375 2040.1328125 472.4534375 2040.1328125 471.7734375 2040.1328125 C471.62068359 2040.92945312 471.62068359 2040.92945312 471.46484375 2041.7421875 C470.57035649 2044.8349909 469.17482623 2047.51732818 467.7109375 2050.3828125 C467.16308594 2051.46046875 466.61523438 2052.538125 466.05078125 2053.6484375 C465.62925781 2054.46828125 465.20773437 2055.288125 464.7734375 2056.1328125 C464.1134375 2056.1328125 463.4534375 2056.1328125 462.7734375 2056.1328125 C462.7734375 2057.1228125 462.7734375 2058.1128125 462.7734375 2059.1328125 C462.1134375 2059.1328125 461.4534375 2059.1328125 460.7734375 2059.1328125 C460.7734375 2060.1228125 460.7734375 2061.1128125 460.7734375 2062.1328125 C460.1134375 2062.1328125 459.4534375 2062.1328125 458.7734375 2062.1328125 C458.309375 2063.3084375 458.309375 2063.3084375 457.8359375 2064.5078125 C456.7734375 2067.1328125 456.7734375 2067.1328125 455.7734375 2069.1328125 C455.1134375 2069.1328125 454.4534375 2069.1328125 453.7734375 2069.1328125 C453.7734375 2070.1228125 453.7734375 2071.1128125 453.7734375 2072.1328125 C453.1134375 2072.1328125 452.4534375 2072.1328125 451.7734375 2072.1328125 C451.4640625 2072.7515625 451.1546875 2073.3703125 450.8359375 2074.0078125 C450.1484375 2075.3828125 449.4609375 2076.7578125 448.7734375 2078.1328125 C448.1134375 2078.1328125 447.4534375 2078.1328125 446.7734375 2078.1328125 C446.4640625 2078.7515625 446.1546875 2079.3703125 445.8359375 2080.0078125 C445.1484375 2081.3828125 444.4609375 2082.7578125 443.7734375 2084.1328125 C443.1134375 2084.1328125 442.4534375 2084.1328125 441.7734375 2084.1328125 C441.433125 2084.968125 441.433125 2084.968125 441.0859375 2085.8203125 C439.40913249 2088.77468322 437.20019398 2090.76383593 434.7734375 2093.1328125 C434.1134375 2093.9784375 433.4534375 2094.8240625 432.7734375 2095.6953125 C430.65377116 2098.27865585 428.49418733 2100.19964815 425.7734375 2102.1328125 C425.1134375 2102.1328125 424.4534375 2102.1328125 423.7734375 2102.1328125 C423.4434375 2103.1228125 423.1134375 2104.1128125 422.7734375 2105.1328125 C420.91305785 2106.68217776 418.98525923 2108.15158045 417.0234375 2109.5703125 C412.55199977 2112.82005755 412.55199977 2112.82005755 408.19140625 2116.21484375 C384.46351491 2135.03615982 353.16301546 2147.8037854 323.7734375 2154.1328125 C322.37931641 2154.43445312 322.37931641 2154.43445312 320.95703125 2154.7421875 C318.56702206 2155.23589832 316.17384727 2155.69273738 313.7734375 2156.1328125 C312.9175 2156.29523437 312.0615625 2156.45765625 311.1796875 2156.625 C308.3807898 2157.14778262 305.57876797 2157.64574974 302.7734375 2158.1328125 C301.76410156 2158.30941406 300.75476562 2158.48601563 299.71484375 2158.66796875 C291.41912645 2160.03874211 283.16531157 2160.71231255 274.7734375 2161.1328125 C273.89848633 2161.17792969 273.02353516 2161.22304687 272.12207031 2161.26953125 C269.2352447 2161.41640309 266.34819938 2161.5572925 263.4609375 2161.6953125 C262.5541626 2161.73922119 261.6473877 2161.78312988 260.71313477 2161.82836914 C253.03875137 2162.1746924 245.30737526 2162.51072503 237.6484375 2161.7578125 C236.2871875 2161.62439453 236.2871875 2161.62439453 234.8984375 2161.48828125 C229.84439358 2160.91338375 224.80445467 2160.22964283 219.765625 2159.53515625 C217.00625664 2159.20254621 214.35935106 2159.12570825 211.58203125 2159.19140625 C205.61408166 2159.25599722 199.83389561 2158.22917566 193.9609375 2157.2578125 C192.84267578 2157.08378906 191.72441406 2156.90976563 190.57226562 2156.73046875 C185.89232836 2155.97247051 181.99773997 2155.30102901 177.7734375 2153.1328125 C175.74084029 2152.63128986 175.74084029 2152.63128986 173.62109375 2152.3515625 C172.84443359 2152.23167969 172.06777344 2152.11179687 171.26757812 2151.98828125 C170.46513672 2151.87097656 169.66269531 2151.75367187 168.8359375 2151.6328125 C163.86290519 2150.90231058 159.40755365 2150.16690242 154.7734375 2148.1328125 C153.32367827 2147.76396916 151.86471692 2147.42924444 150.3984375 2147.1328125 C140.50236809 2145.02516377 140.50236809 2145.02516377 136.8359375 2143.1328125 C133.64150901 2141.58399869 130.21258334 2140.93692933 126.7734375 2140.1328125 C125.27283894 2139.7602149 123.77280989 2139.38531406 122.2734375 2139.0078125 C121.1184375 2138.7190625 119.9634375 2138.4303125 118.7734375 2138.1328125 C118.7734375 2137.4728125 118.7734375 2136.8128125 118.7734375 2136.1328125 C117.7628125 2136.0090625 116.7521875 2135.8853125 115.7109375 2135.7578125 C111.89406138 2135.15195915 108.45843638 2134.26087338 104.7734375 2133.1328125 C104.7734375 2132.4728125 104.7734375 2131.8128125 104.7734375 2131.1328125 C103.62875 2131.0090625 103.62875 2131.0090625 102.4609375 2130.8828125 C97.3585258 2129.84503385 92.6278881 2127.98994218 87.7734375 2126.1328125 C87.7734375 2125.4728125 87.7734375 2124.8128125 87.7734375 2124.1328125 C86.1234375 2124.1328125 84.4734375 2124.1328125 82.7734375 2124.1328125 C82.7734375 2123.4728125 82.7734375 2122.8128125 82.7734375 2122.1328125 C81.1234375 2122.1328125 79.4734375 2122.1328125 77.7734375 2122.1328125 C77.7734375 2121.4728125 77.7734375 2120.8128125 77.7734375 2120.1328125 C76.68772461 2119.95383423 76.68772461 2119.95383423 75.58007812 2119.77124023 C72.73935037 2119.12505869 70.48034242 2118.19303464 67.8671875 2116.91796875 C66.95839844 2116.47904297 66.04960938 2116.04011719 65.11328125 2115.58789062 C63.70755859 2114.89856445 63.70755859 2114.89856445 62.2734375 2114.1953125 C60.40952068 2113.28899256 58.54495759 2112.38400029 56.6796875 2111.48046875 C55.85791016 2111.07836182 55.03613281 2110.67625488 54.18945312 2110.26196289 C51.74969779 2109.12171749 49.28279856 2108.10901652 46.7734375 2107.1328125 C46.7734375 2106.4728125 46.7734375 2105.8128125 46.7734375 2105.1328125 C46.19078125 2105.00447021 45.608125 2104.87612793 45.0078125 2104.74389648 C42.82836628 2104.14783509 41.03334472 2103.37729271 39.0234375 2102.35546875 C37.98703125 2101.83243164 37.98703125 2101.83243164 36.9296875 2101.29882812 C36.218125 2100.93466797 35.5065625 2100.57050781 34.7734375 2100.1953125 C34.061875 2099.83501953 33.3503125 2099.47472656 32.6171875 2099.10351562 C31.28812849 2098.43030756 29.95990171 2097.75545197 28.6328125 2097.07836914 C26.68416818 2096.08741596 24.72974713 2095.10853275 22.7734375 2094.1328125 C22.7734375 2093.4728125 22.7734375 2092.8128125 22.7734375 2092.1328125 C21.4534375 2092.1328125 20.1334375 2092.1328125 18.7734375 2092.1328125 C18.7734375 2091.4728125 18.7734375 2090.8128125 18.7734375 2090.1328125 C17.7834375 2090.1328125 16.7934375 2090.1328125 15.7734375 2090.1328125 C15.7734375 2089.4728125 15.7734375 2088.8128125 15.7734375 2088.1328125 C14.7834375 2088.1328125 13.7934375 2088.1328125 12.7734375 2088.1328125 C12.7734375 2087.4728125 12.7734375 2086.8128125 12.7734375 2086.1328125 C11.91492188 2085.94912109 11.91492188 2085.94912109 11.0390625 2085.76171875 C8.67390559 2085.10518382 6.70136953 2084.19557738 4.5234375 2083.0703125 C3.81703125 2082.70808594 3.110625 2082.34585938 2.3828125 2081.97265625 C1.85171875 2081.69550781 1.320625 2081.41835937 0.7734375 2081.1328125 C0.7734375 2080.4728125 0.7734375 2079.8128125 0.7734375 2079.1328125 C-0.2165625 2079.1328125 -1.2065625 2079.1328125 -2.2265625 2079.1328125 C-2.2265625 2078.4728125 -2.2265625 2077.8128125 -2.2265625 2077.1328125 C-3.2165625 2077.1328125 -4.2065625 2077.1328125 -5.2265625 2077.1328125 C-5.2265625 2076.4728125 -5.2265625 2075.8128125 -5.2265625 2075.1328125 C-6.2165625 2075.1328125 -7.2065625 2075.1328125 -8.2265625 2075.1328125 C-8.2265625 2074.4728125 -8.2265625 2073.8128125 -8.2265625 2073.1328125 C-10.87885062 2072.05756056 -13.51024704 2071.03825099 -16.2265625 2070.1328125 C-16.2265625 2069.4728125 -16.2265625 2068.8128125 -16.2265625 2068.1328125 C-17.2165625 2068.1328125 -18.2065625 2068.1328125 -19.2265625 2068.1328125 C-19.2265625 2067.4728125 -19.2265625 2066.8128125 -19.2265625 2066.1328125 C-20.0103125 2065.8234375 -20.7940625 2065.5140625 -21.6015625 2065.1953125 C-24.2265625 2064.1328125 -24.2265625 2064.1328125 -26.2265625 2063.1328125 C-26.2265625 2062.4728125 -26.2265625 2061.8128125 -26.2265625 2061.1328125 C-27.2165625 2061.1328125 -28.2065625 2061.1328125 -29.2265625 2061.1328125 C-29.2265625 2060.4728125 -29.2265625 2059.8128125 -29.2265625 2059.1328125 C-29.8865625 2059.1328125 -30.5465625 2059.1328125 -31.2265625 2059.1328125 C-31.2265625 2058.4728125 -31.2265625 2057.8128125 -31.2265625 2057.1328125 C-32.0103125 2056.8234375 -32.7940625 2056.5140625 -33.6015625 2056.1953125 C-36.2265625 2055.1328125 -36.2265625 2055.1328125 -38.2265625 2054.1328125 C-38.2265625 2053.4728125 -38.2265625 2052.8128125 -38.2265625 2052.1328125 C-39.2165625 2052.1328125 -40.2065625 2052.1328125 -41.2265625 2052.1328125 C-41.2265625 2051.4728125 -41.2265625 2050.8128125 -41.2265625 2050.1328125 C-42.0103125 2049.8234375 -42.7940625 2049.5140625 -43.6015625 2049.1953125 C-46.2265625 2048.1328125 -46.2265625 2048.1328125 -48.2265625 2047.1328125 C-48.2265625 2046.4728125 -48.2265625 2045.8128125 -48.2265625 2045.1328125 C-49.061875 2044.730625 -49.061875 2044.730625 -49.9140625 2044.3203125 C-52.43881584 2043.02381754 -54.86370734 2041.70804927 -57.2265625 2040.1328125 C-57.2265625 2039.4728125 -57.2265625 2038.8128125 -57.2265625 2038.1328125 C-58.1546875 2037.66875 -58.1546875 2037.66875 -59.1015625 2037.1953125 C-60.4765625 2036.5078125 -61.8515625 2035.8203125 -63.2265625 2035.1328125 C-63.2265625 2034.4728125 -63.2265625 2033.8128125 -63.2265625 2033.1328125 C-64.1546875 2032.66875 -64.1546875 2032.66875 -65.1015625 2032.1953125 C-66.4765625 2031.5078125 -67.8515625 2030.8203125 -69.2265625 2030.1328125 C-69.2265625 2029.4728125 -69.2265625 2028.8128125 -69.2265625 2028.1328125 C-70.1546875 2027.66875 -70.1546875 2027.66875 -71.1015625 2027.1953125 C-72.4765625 2026.5078125 -73.8515625 2025.8203125 -75.2265625 2025.1328125 C-75.2265625 2024.4728125 -75.2265625 2023.8128125 -75.2265625 2023.1328125 C-75.8865625 2023.1328125 -76.5465625 2023.1328125 -77.2265625 2023.1328125 C-77.2265625 2022.4728125 -77.2265625 2021.8128125 -77.2265625 2021.1328125 C-78.5465625 2020.8028125 -79.8665625 2020.4728125 -81.2265625 2020.1328125 C-81.2265625 2019.4728125 -81.2265625 2018.8128125 -81.2265625 2018.1328125 C-81.8865625 2018.1328125 -82.5465625 2018.1328125 -83.2265625 2018.1328125 C-83.2265625 2017.4728125 -83.2265625 2016.8128125 -83.2265625 2016.1328125 C-83.80277344 2015.875 -84.37898437 2015.6171875 -84.97265625 2015.3515625 C-87.42050035 2014.0279449 -89.23293977 2012.5027353 -91.2890625 2010.6328125 C-93.56088257 2008.57465689 -95.66363507 2006.84143079 -98.2265625 2005.1328125 C-98.2265625 2004.4728125 -98.2265625 2003.8128125 -98.2265625 2003.1328125 C-98.8865625 2003.1328125 -99.5465625 2003.1328125 -100.2265625 2003.1328125 C-101.8515625 2001.7578125 -101.8515625 2001.7578125 -103.2265625 2000.1328125 C-103.2265625 1999.4728125 -103.2265625 1998.8128125 -103.2265625 1998.1328125 C-104.185625 1997.730625 -104.185625 1997.730625 -105.1640625 1997.3203125 C-107.2265625 1996.1328125 -107.2265625 1996.1328125 -108.2265625 1993.1328125 C-109.54780136 1992.44248642 -110.883254 1991.77914406 -112.2265625 1991.1328125 C-113.54137083 1989.92915291 -114.81027385 1988.67416676 -116.0390625 1987.3828125 C-118.61737014 1984.71775806 -121.21201965 1982.26780519 -124.1015625 1979.9453125 C-126.95212242 1977.58378769 -127.96186761 1975.6350445 -129.2265625 1972.1328125 C-131.24326077 1970.99930716 -131.24326077 1970.99930716 -133.2265625 1970.1328125 C-133.5565625 1969.1428125 -133.8865625 1968.1528125 -134.2265625 1967.1328125 C-135.2165625 1966.8028125 -136.2065625 1966.4728125 -137.2265625 1966.1328125 C-137.2265625 1965.4728125 -137.2265625 1964.8128125 -137.2265625 1964.1328125 C-137.8865625 1964.1328125 -138.5465625 1964.1328125 -139.2265625 1964.1328125 C-140.77734375 1962.59375 -140.77734375 1962.59375 -142.5390625 1960.5078125 C-143.39951172 1959.49847656 -143.39951172 1959.49847656 -144.27734375 1958.46875 C-146.59506891 1955.6911956 -148.91223149 1952.9131964 -151.2265625 1950.1328125 C-152.81282391 1952.96451573 -154.39501843 1955.79847228 -155.9765625 1958.6328125 C-156.42 1959.42429687 -156.8634375 1960.21578125 -157.3203125 1961.03125 C-160.09233512 1966.00458471 -162.71778628 1971.02147403 -165.2265625 1976.1328125 C-165.8865625 1976.1328125 -166.5465625 1976.1328125 -167.2265625 1976.1328125 C-167.2265625 1977.1228125 -167.2265625 1978.1128125 -167.2265625 1979.1328125 C-167.8865625 1979.1328125 -168.5465625 1979.1328125 -169.2265625 1979.1328125 C-169.4946875 1979.8546875 -169.7628125 1980.5765625 -170.0390625 1981.3203125 C-171.22557612 1984.13047633 -172.50141889 1986.61697807 -174.2265625 1989.1328125 C-174.8865625 1989.1328125 -175.5465625 1989.1328125 -176.2265625 1989.1328125 C-176.5359375 1989.9165625 -176.8453125 1990.7003125 -177.1640625 1991.5078125 C-178.2265625 1994.1328125 -178.2265625 1994.1328125 -179.2265625 1996.1328125 C-179.8865625 1996.1328125 -180.5465625 1996.1328125 -181.2265625 1996.1328125 C-181.2265625 1997.1228125 -181.2265625 1998.1128125 -181.2265625 1999.1328125 C-181.8865625 1999.1328125 -182.5465625 1999.1328125 -183.2265625 1999.1328125 C-183.5359375 1999.7515625 -183.8453125 2000.3703125 -184.1640625 2001.0078125 C-184.8515625 2002.3828125 -185.5390625 2003.7578125 -186.2265625 2005.1328125 C-186.8865625 2005.1328125 -187.5465625 2005.1328125 -188.2265625 2005.1328125 C-188.2265625 2005.7928125 -188.2265625 2006.4528125 -188.2265625 2007.1328125 C-188.8865625 2007.1328125 -189.5465625 2007.1328125 -190.2265625 2007.1328125 C-190.4946875 2007.71546875 -190.7628125 2008.298125 -191.0390625 2008.8984375 C-192.24137241 2011.16067851 -193.56482163 2012.93857568 -195.2265625 2014.8828125 C-195.7421875 2015.49640625 -196.2578125 2016.11 -196.7890625 2016.7421875 C-198.2265625 2018.1328125 -198.2265625 2018.1328125 -200.2265625 2018.1328125 C-200.4328125 2018.6896875 -200.6390625 2019.2465625 -200.8515625 2019.8203125 C-202.40190548 2022.42770752 -204.3063907 2023.99050029 -206.66796875 2025.859375 C-208.4090628 2027.23262685 -208.4090628 2027.23262685 -210.4765625 2029.4453125 C-215.74358002 2034.59262507 -221.18941891 2039.68237857 -228.2265625 2042.1328125 C-228.2265625 2042.7928125 -228.2265625 2043.4528125 -228.2265625 2044.1328125 C-232.92422763 2047.9387912 -241.02232434 2054.1328125 -247.2265625 2054.1328125 C-247.5565625 2054.7928125 -247.8865625 2055.4528125 -248.2265625 2056.1328125 C-255.27610126 2060.51168768 -263.16471008 2062.95274528 -271.0390625 2065.3828125 C-272.14443359 2065.7334375 -273.24980469 2066.0840625 -274.38867188 2066.4453125 C-287.41551194 2070.53833778 -287.41551194 2070.53833778 -290.2265625 2069.1328125 C-290.5565625 2069.7928125 -290.8865625 2070.4528125 -291.2265625 2071.1328125 C-293.66015625 2071.51171875 -293.66015625 2071.51171875 -296.6640625 2071.6953125 C-300.59191467 2071.86390616 -300.59191467 2071.86390616 -304.2265625 2073.1328125 C-306.53474914 2073.20171359 -308.82465267 2073.1302647 -311.1328125 2073.0703125 C-313.28681772 2072.98780384 -313.28681772 2072.98780384 -315.2265625 2074.1328125 C-317.82303746 2074.26026504 -320.37956609 2074.32229516 -322.9765625 2074.3203125 C-323.73138916 2074.32168213 -324.48621582 2074.32305176 -325.26391602 2074.32446289 C-331.49765747 2074.27146267 -337.42191019 2073.55199942 -343.56640625 2072.47265625 C-346.19646037 2071.88569767 -346.19646037 2071.88569767 -348.2265625 2073.1328125 C-350.96391764 2072.71902626 -353.64179361 2072.24522242 -356.3515625 2071.6953125 C-357.10566406 2071.54771484 -357.85976563 2071.40011719 -358.63671875 2071.24804688 C-360.50117407 2070.88223602 -362.36402964 2070.50828894 -364.2265625 2070.1328125 C-364.2265625 2069.4728125 -364.2265625 2068.8128125 -364.2265625 2068.1328125 C-365.31324219 2068.04193359 -365.31324219 2068.04193359 -366.421875 2067.94921875 C-371.39772783 2067.51797817 -376.31336641 2067.06233609 -381.2265625 2066.1328125 C-381.2265625 2065.4728125 -381.2265625 2064.8128125 -381.2265625 2064.1328125 C-384.5265625 2063.8028125 -387.8265625 2063.4728125 -391.2265625 2063.1328125 C-391.2265625 2062.4728125 -391.2265625 2061.8128125 -391.2265625 2061.1328125 C-392.4228125 2061.0090625 -393.6190625 2060.8853125 -394.8515625 2060.7578125 C-398.50253063 2060.30956196 -401.77181149 2059.42834413 -405.2265625 2058.1328125 C-405.2265625 2057.4728125 -405.2265625 2056.8128125 -405.2265625 2056.1328125 C-405.92652344 2056.19339844 -406.62648438 2056.25398438 -407.34765625 2056.31640625 C-410.9346809 2056.08765434 -413.1327522 2054.89118087 -416.2890625 2053.1953125 C-421.06193891 2050.63365168 -421.06193891 2050.63365168 -426.2265625 2049.1328125 C-426.2265625 2048.4728125 -426.2265625 2047.8128125 -426.2265625 2047.1328125 C-426.9690625 2046.9884375 -427.7115625 2046.8440625 -428.4765625 2046.6953125 C-430.74683989 2046.23093758 -432.98415729 2045.71417681 -435.2265625 2045.1328125 C-435.2265625 2044.4728125 -435.2265625 2043.8128125 -435.2265625 2043.1328125 C-435.8246875 2042.9884375 -436.4228125 2042.8440625 -437.0390625 2042.6953125 C-438.78806654 2042.2455686 -440.51333273 2041.70388909 -442.2265625 2041.1328125 C-442.2265625 2040.4728125 -442.2265625 2039.8128125 -442.2265625 2039.1328125 C-443.5465625 2039.1328125 -444.8665625 2039.1328125 -446.2265625 2039.1328125 C-446.2265625 2038.4728125 -446.2265625 2037.8128125 -446.2265625 2037.1328125 C-446.773125 2037.02839844 -447.3196875 2036.92398438 -447.8828125 2036.81640625 C-450.76117256 2035.97688457 -453.11363963 2034.66328703 -455.7265625 2033.1953125 C-458.86534025 2031.44052879 -461.9946966 2029.71063382 -465.2265625 2028.1328125 C-465.2265625 2027.4728125 -465.2265625 2026.8128125 -465.2265625 2026.1328125 C-466.2165625 2026.1328125 -467.2065625 2026.1328125 -468.2265625 2026.1328125 C-468.2265625 2025.4728125 -468.2265625 2024.8128125 -468.2265625 2024.1328125 C-468.7421875 2024.0503125 -469.2578125 2023.9678125 -469.7890625 2023.8828125 C-473.27111982 2022.81141025 -476.09857135 2020.99757645 -479.2265625 2019.1328125 C-479.2265625 2018.4728125 -479.2265625 2017.8128125 -479.2265625 2017.1328125 C-480.2165625 2017.1328125 -481.2065625 2017.1328125 -482.2265625 2017.1328125 C-482.2265625 2016.4728125 -482.2265625 2015.8128125 -482.2265625 2015.1328125 C-483.2165625 2015.1328125 -484.2065625 2015.1328125 -485.2265625 2015.1328125 C-485.2265625 2014.4728125 -485.2265625 2013.8128125 -485.2265625 2013.1328125 C-486.4021875 2012.66875 -486.4021875 2012.66875 -487.6015625 2012.1953125 C-490.2265625 2011.1328125 -490.2265625 2011.1328125 -492.2265625 2010.1328125 C-492.2265625 2009.4728125 -492.2265625 2008.8128125 -492.2265625 2008.1328125 C-493.2165625 2008.1328125 -494.2065625 2008.1328125 -495.2265625 2008.1328125 C-495.2265625 2007.4728125 -495.2265625 2006.8128125 -495.2265625 2006.1328125 C-497.55870398 2004.92653242 -499.72298389 2003.9673387 -502.2265625 2003.1328125 C-502.2265625 2002.4728125 -502.2265625 2001.8128125 -502.2265625 2001.1328125 C-502.8865625 2001.1328125 -503.5465625 2001.1328125 -504.2265625 2001.1328125 C-504.2265625 2000.4728125 -504.2265625 1999.8128125 -504.2265625 1999.1328125 C-505.4021875 1998.66875 -505.4021875 1998.66875 -506.6015625 1998.1953125 C-509.2265625 1997.1328125 -509.2265625 1997.1328125 -511.2265625 1996.1328125 C-511.2265625 1995.4728125 -511.2265625 1994.8128125 -511.2265625 1994.1328125 C-511.8453125 1993.8234375 -512.4640625 1993.5140625 -513.1015625 1993.1953125 C-514.4765625 1992.5078125 -515.8515625 1991.8203125 -517.2265625 1991.1328125 C-517.2265625 1990.4728125 -517.2265625 1989.8128125 -517.2265625 1989.1328125 C-518.2165625 1989.1328125 -519.2065625 1989.1328125 -520.2265625 1989.1328125 C-521.9140625 1987.7578125 -521.9140625 1987.7578125 -523.2265625 1986.1328125 C-523.2265625 1985.4728125 -523.2265625 1984.8128125 -523.2265625 1984.1328125 C-523.8453125 1983.8234375 -524.4640625 1983.5140625 -525.1015625 1983.1953125 C-526.4765625 1982.5078125 -527.8515625 1981.8203125 -529.2265625 1981.1328125 C-529.2265625 1980.4728125 -529.2265625 1979.8128125 -529.2265625 1979.1328125 C-530.0928125 1978.730625 -530.0928125 1978.730625 -530.9765625 1978.3203125 C-533.28206293 1977.10352061 -535.24712442 1975.82947371 -537.2265625 1974.1328125 C-537.2265625 1973.4728125 -537.2265625 1972.8128125 -537.2265625 1972.1328125 C-537.8865625 1972.1328125 -538.5465625 1972.1328125 -539.2265625 1972.1328125 C-539.2265625 1971.4728125 -539.2265625 1970.8128125 -539.2265625 1970.1328125 C-539.7834375 1969.8853125 -540.3403125 1969.6378125 -540.9140625 1969.3828125 C-543.65067163 1967.90356432 -545.90307119 1966.19813811 -548.2265625 1964.1328125 C-548.2265625 1963.4728125 -548.2265625 1962.8128125 -548.2265625 1962.1328125 C-548.8659375 1961.8646875 -549.5053125 1961.5965625 -550.1640625 1961.3203125 C-552.2265625 1960.1328125 -552.2265625 1960.1328125 -553.2265625 1957.1328125 C-554.54059526 1956.42886638 -555.8785882 1955.76935592 -557.2265625 1955.1328125 C-561.28473573 1952.28112321 -564.3200874 1948.84799769 -567.51171875 1945.09765625 C-568.9995905 1943.39287381 -570.52897831 1941.81878522 -572.1640625 1940.2578125 C-574.2265625 1938.1328125 -574.2265625 1938.1328125 -574.2265625 1936.1328125 C-574.79117188 1935.90335938 -575.35578125 1935.67390625 -575.9375 1935.4375 C-578.83500887 1933.78601883 -580.64077783 1931.74956646 -582.8515625 1929.2578125 C-583.62757813 1928.39414063 -584.40359375 1927.53046875 -585.203125 1926.640625 C-587.2265625 1924.1328125 -587.2265625 1924.1328125 -588.3125 1921.875 C-589.16035256 1919.7697942 -589.16035256 1919.7697942 -592.2265625 1919.1328125 C-596.2265625 1914.67566964 -596.2265625 1914.67566964 -596.2265625 1912.1328125 C-597.2165625 1911.8028125 -598.2065625 1911.4728125 -599.2265625 1911.1328125 C-603.2265625 1906.67566964 -603.2265625 1906.67566964 -603.2265625 1904.1328125 C-604.2165625 1903.8028125 -605.2065625 1903.4728125 -606.2265625 1903.1328125 C-607.4140625 1900.5703125 -607.4140625 1900.5703125 -608.2265625 1898.1328125 C-608.8865625 1898.1328125 -609.5465625 1898.1328125 -610.2265625 1898.1328125 C-610.4946875 1897.3284375 -610.7628125 1896.5240625 -611.0390625 1895.6953125 C-611.4309375 1894.8496875 -611.8228125 1894.0040625 -612.2265625 1893.1328125 C-613.2165625 1892.8028125 -614.2065625 1892.4728125 -615.2265625 1892.1328125 C-617.05078125 1890.13671875 -617.05078125 1890.13671875 -618.9140625 1887.6953125 C-619.53667969 1886.89222656 -620.15929687 1886.08914063 -620.80078125 1885.26171875 C-622.2265625 1883.1328125 -622.2265625 1883.1328125 -622.2265625 1881.1328125 C-622.8865625 1881.1328125 -623.5465625 1881.1328125 -624.2265625 1881.1328125 C-628.2265625 1875.72104779 -628.2265625 1875.72104779 -628.2265625 1873.1328125 C-628.8865625 1873.1328125 -629.5465625 1873.1328125 -630.2265625 1873.1328125 C-631.890625 1871.11328125 -631.890625 1871.11328125 -633.8515625 1868.3203125 C-637.37662517 1863.33238104 -640.98745646 1858.42313149 -644.66015625 1853.54296875 C-646.10854135 1851.31440613 -646.79899061 1849.72835454 -647.2265625 1847.1328125 C-647.8865625 1847.1328125 -648.5465625 1847.1328125 -649.2265625 1847.1328125 C-650.96286109 1844.68607075 -652.57681778 1842.23699326 -654.1640625 1839.6953125 C-655.15987492 1838.12612351 -656.1559767 1836.55711813 -657.15234375 1834.98828125 C-657.91732178 1833.77664307 -657.91732178 1833.77664307 -658.69775391 1832.54052734 C-660.59687512 1829.54960856 -662.5337528 1826.58443912 -664.47290039 1823.61938477 C-669.93941098 1815.24682409 -675.16592954 1806.75586471 -680.2265625 1798.1328125 C-680.6596875 1797.39804688 -681.0928125 1796.66328125 -681.5390625 1795.90625 C-713.2265625 1742.07350852 -713.2265625 1742.07350852 -713.2265625 1732.1328125 C-713.8865625 1731.8028125 -714.5465625 1731.4728125 -715.2265625 1731.1328125 C-716.29955176 1728.80800244 -717.28528317 1726.50866193 -718.2265625 1724.1328125 C-718.814375 1722.7715625 -718.814375 1722.7715625 -719.4140625 1721.3828125 C-720.2265625 1719.1328125 -720.2265625 1719.1328125 -720.2265625 1716.1328125 C-720.8865625 1715.8028125 -721.5465625 1715.4728125 -722.2265625 1715.1328125 C-723.07571816 1713.27628851 -723.83269133 1711.37735214 -724.546875 1709.46484375 C-724.99643555 1708.27093018 -725.44599609 1707.0770166 -725.90917969 1705.84692383 C-726.39035017 1704.54652586 -726.87113672 1703.24598578 -727.3515625 1701.9453125 C-727.84234956 1700.62964323 -728.33356304 1699.31413296 -728.82519531 1697.9987793 C-729.81991345 1695.3328587 -730.80974258 1692.66519299 -731.79589844 1689.99609375 C-733.10555195 1686.45318041 -734.43423722 1682.91762053 -735.765625 1679.3828125 C-736.50344848 1677.40396044 -737.24048035 1675.42481295 -737.9765625 1673.4453125 C-738.32348145 1672.52661377 -738.67040039 1671.60791504 -739.02783203 1670.66137695 C-739.33575684 1669.8230835 -739.64368164 1668.98479004 -739.9609375 1668.12109375 C-740.23131836 1667.39446533 -740.50169922 1666.66783691 -740.78027344 1665.91918945 C-741.2265625 1664.1328125 -741.2265625 1664.1328125 -740.2265625 1662.1328125 C-740.8865625 1661.8028125 -741.5465625 1661.4728125 -742.2265625 1661.1328125 C-743.20043945 1658.81054687 -743.20043945 1658.81054687 -744.21484375 1655.7265625 C-744.58907471 1654.59814941 -744.96330566 1653.46973633 -745.34887695 1652.30712891 C-745.74163818 1651.09460449 -746.13439941 1649.88208008 -746.5390625 1648.6328125 C-746.94278076 1647.40353027 -747.34649902 1646.17424805 -747.76245117 1644.90771484 C-750.37353169 1636.90698189 -752.86503126 1628.88125416 -755.17578125 1620.7890625 C-756.1891289 1617.26306473 -757.25916802 1613.76002103 -758.3515625 1610.2578125 C-759.55612549 1606.37911967 -760.68499041 1602.49580732 -761.7265625 1598.5703125 C-762.76291203 1594.67409132 -763.97195842 1590.88068001 -765.2890625 1587.0703125 C-766.7974497 1582.64191537 -767.83909127 1578.33320203 -768.671875 1573.73828125 C-769.30637606 1570.75791357 -770.17989193 1567.9121465 -771.1015625 1565.0078125 C-775.01587508 1552.62698679 -777.77980154 1539.90837318 -780.7265625 1527.26953125 C-781.22252527 1525.15006536 -781.72362895 1523.03188426 -782.2265625 1520.9140625 C-785.85043471 1505.64354632 -789.24777958 1490.34241414 -792.2734375 1474.94140625 C-792.88623468 1471.82426957 -793.52054865 1468.71313067 -794.1796875 1465.60546875 C-794.325271 1464.91026123 -794.47085449 1464.21505371 -794.62084961 1463.4987793 C-795.01261368 1461.63372618 -795.41038705 1459.76993819 -795.80859375 1457.90625 C-796.2265625 1455.1328125 -796.2265625 1455.1328125 -795.2265625 1453.1328125 C-795.8865625 1452.8028125 -796.5465625 1452.4728125 -797.2265625 1452.1328125 C-797.7890625 1449.6484375 -797.7890625 1449.6484375 -798.2265625 1446.3828125 C-798.47212891 1444.62710937 -798.47212891 1444.62710937 -798.72265625 1442.8359375 C-798.88894531 1441.61390625 -799.05523438 1440.391875 -799.2265625 1439.1328125 C-799.57565786 1436.79871505 -799.92959832 1434.46533559 -800.2890625 1432.1328125 C-800.44503906 1431.1015625 -800.60101562 1430.0703125 -800.76171875 1429.0078125 C-801.059064 1427.16876962 -801.38698853 1425.33424736 -801.75390625 1423.5078125 C-802.30362582 1420.74558522 -802.62957841 1417.99181445 -802.9453125 1415.1953125 C-803.3759117 1412.03758502 -804.06030982 1408.93227252 -804.70898438 1405.81298828 C-805.92733562 1399.90104894 -806.89860158 1393.98602826 -807.7265625 1388.0078125 C-807.85401855 1387.0998291 -807.98147461 1386.1918457 -808.11279297 1385.25634766 C-809.64528283 1374.25450052 -811.16019931 1363.25388254 -811.98046875 1352.171875 C-812.1181312 1350.06899069 -812.1181312 1350.06899069 -813.2265625 1348.1328125 C-813.41373954 1346.13625744 -813.55051789 1344.13490515 -813.6640625 1342.1328125 C-814.02332768 1336.6091103 -814.5252571 1331.13068783 -815.1640625 1325.6328125 C-816.15787998 1317.01137629 -816.9549909 1308.37852813 -817.72265625 1299.734375 C-818.13398306 1295.11238177 -818.57584836 1290.49392915 -819.02758789 1285.87573242 C-820.46382289 1271.15264742 -821.35170616 1256.41783334 -822.09716797 1241.64599609 C-822.22954669 1239.07485165 -822.36994655 1236.50423615 -822.51171875 1233.93359375 C-822.9714797 1225.42881437 -823.33927012 1216.98822071 -823.1640625 1208.46875 C-823.06235744 1206.10861345 -823.06235744 1206.10861345 -824.2265625 1204.1328125 C-824.32012747 1202.7778966 -824.35285655 1201.41850626 -824.35354614 1200.06036377 C-824.35636597 1199.20804169 -824.35918579 1198.3557196 -824.36209106 1197.47756958 C-824.36006683 1196.54041107 -824.3580426 1195.60325256 -824.35595703 1194.63769531 C-824.35770935 1193.65217682 -824.35946167 1192.66665833 -824.36126709 1191.65127563 C-824.36568333 1188.37947856 -824.3627475 1185.10773517 -824.359375 1181.8359375 C-824.36004832 1179.56630442 -824.36101858 1177.29667141 -824.36227417 1175.02703857 C-824.36375101 1170.26215938 -824.36159782 1165.4972989 -824.35693359 1160.73242188 C-824.35124928 1154.62807339 -824.35450717 1148.523769 -824.36050606 1142.41942215 C-824.3641231 1137.72853261 -824.36296759 1133.03765347 -824.36037827 1128.34676361 C-824.35971149 1126.0965245 -824.36052872 1123.84628445 -824.36285782 1121.59604645 C-824.36540161 1118.44584154 -824.36151875 1115.29570746 -824.35595703 1112.14550781 C-824.35798126 1111.21644623 -824.36000549 1110.28738464 -824.36209106 1109.33016968 C-824.34728068 1104.79433011 -823.99642899 1100.61347817 -823.2265625 1096.1328125 C-823.5565625 1095.4728125 -823.8865625 1094.8128125 -824.2265625 1094.1328125 C-824.13588716 1092.69078213 -823.97894807 1091.2526592 -823.7890625 1089.8203125 C-823.3256104 1085.7489738 -823.18255805 1081.79261607 -823.2265625 1077.6953125 C-823.26708238 1072.74031057 -823.01860692 1067.92609633 -822.51171875 1063 C-822.07196154 1058.57833157 -821.78391054 1054.14737872 -821.4765625 1049.71484375 C-821.31640655 1047.42010923 -821.15029008 1045.12577822 -820.9765625 1042.83203125 C-820.45790786 1035.93554539 -820.05897477 1029.0402488 -819.7265625 1022.1328125 C-819.15778962 1010.49534826 -818.51136485 998.99897577 -816.62890625 987.484375 C-816.25559025 984.3746165 -816.248026 981.40087807 -816.28735352 978.27490234 C-816.15267015 973.52907162 -815.12390517 968.86294301 -814.29296875 964.19921875 C-814.15761719 963.40386719 -814.02226563 962.60851563 -813.8828125 961.7890625 C-813.75712891 961.08587891 -813.63144531 960.38269531 -813.50195312 959.65820312 C-813.15433841 956.93644474 -813.15433841 956.93644474 -813.26757812 953.39257812 C-813.30262218 948.93367667 -812.66667212 944.70614619 -811.9140625 940.3203125 C-811.7142981 939.10057739 -811.7142981 939.10057739 -811.51049805 937.85620117 C-810.94642737 934.41328823 -810.36757635 930.9729017 -809.79003906 927.53222656 C-809.36788347 925.00407934 -808.95332794 922.47476262 -808.5390625 919.9453125 C-808.34219849 918.79808716 -808.34219849 918.79808716 -808.14135742 917.62768555 C-807.46634367 913.50109243 -807.2398626 909.6734737 -807.3102417 905.48083496 C-807.11204989 899.91961048 -806.0038763 894.41270023 -805.109375 888.9296875 C-804.88960632 887.56070594 -804.67020132 886.19166595 -804.45114136 884.8225708 C-803.99284845 881.96762248 -803.53002969 879.11345515 -803.06396484 876.25976562 C-802.46784603 872.60731299 -801.88340695 868.95310277 -801.30233955 865.29822922 C-800.85240972 862.47673441 -800.3962146 859.65628011 -799.93813705 856.83609772 C-799.72009745 855.48883797 -799.50402443 854.14125839 -799.28998184 852.79335785 C-798.99023661 850.91166559 -798.68111063 849.0314749 -798.37158203 847.15136719 C-798.19837433 846.08295593 -798.02516663 845.01454468 -797.84671021 843.91375732 C-797.26895404 841.32290999 -796.44443226 839.46380706 -795.2265625 837.1328125 C-794.67659046 834.2735338 -794.20263215 831.44902461 -793.7890625 828.5703125 C-793.60065796 827.32785767 -793.60065796 827.32785767 -793.40844727 826.06030273 C-793.00804242 823.41872572 -792.61625553 820.77598966 -792.2265625 818.1328125 C-791.71343786 814.65243376 -791.19149844 811.17354787 -790.6640625 807.6953125 C-790.49209351 806.49829712 -790.49209351 806.49829712 -790.31665039 805.27709961 C-789.74479278 801.51111892 -789.01245111 798.47968021 -787.2265625 795.1328125 C-786.80707125 793.19219152 -786.45664586 791.23602381 -786.15625 789.2734375 C-785.98222656 788.15839844 -785.80820312 787.04335938 -785.62890625 785.89453125 C-785.45488281 784.73566406 -785.28085937 783.57679688 -785.1015625 782.3828125 C-784.82892578 780.62130859 -784.82892578 780.62130859 -784.55078125 778.82421875 C-784.10338979 775.9279477 -783.66222198 773.03086754 -783.2265625 770.1328125 C-782.5665625 770.1328125 -781.9065625 770.1328125 -781.2265625 770.1328125 C-781.09378906 769.03582031 -780.96101563 767.93882812 -780.82421875 766.80859375 C-780.64593265 765.35415449 -780.4675417 763.89972808 -780.2890625 762.4453125 C-780.20205078 761.72408203 -780.11503906 761.00285156 -780.02539062 760.25976562 C-779.56342445 756.51270666 -779.03488571 752.82488339 -778.2265625 749.1328125 C-777.5665625 749.1328125 -776.9065625 749.1328125 -776.2265625 749.1328125 C-776.16597656 748.32457031 -776.10539062 747.51632812 -776.04296875 746.68359375 C-775.95917969 745.61496094 -775.87539063 744.54632812 -775.7890625 743.4453125 C-775.70785156 742.38957031 -775.62664062 741.33382812 -775.54296875 740.24609375 C-775.26204569 737.48194953 -774.82499398 734.84335509 -774.2265625 732.1328125 C-773.5665625 732.1328125 -772.9065625 732.1328125 -772.2265625 732.1328125 C-772.13568359 731.02873047 -772.13568359 731.02873047 -772.04296875 729.90234375 C-771.95917969 728.92652344 -771.87539063 727.95070313 -771.7890625 726.9453125 C-771.70785156 725.98238281 -771.62664062 725.01945313 -771.54296875 724.02734375 C-771.24990099 721.34631648 -770.79952496 718.7665139 -770.2265625 716.1328125 C-769.5665625 716.1328125 -768.9065625 716.1328125 -768.2265625 716.1328125 C-768.17757812 715.31296875 -768.12859375 714.493125 -768.078125 713.6484375 C-768.00335937 712.57078125 -767.92859375 711.493125 -767.8515625 710.3828125 C-767.78195312 709.31546875 -767.71234375 708.248125 -767.640625 707.1484375 C-767.24272342 704.25051281 -766.55787175 702.67440289 -765.2265625 700.1328125 C-764.79557497 698.22795401 -764.42263486 696.30924668 -764.1015625 694.3828125 C-763.85019531 692.90554688 -763.85019531 692.90554688 -763.59375 691.3984375 C-763.41199219 690.27695313 -763.41199219 690.27695313 -763.2265625 689.1328125 C-762.5665625 689.1328125 -761.9065625 689.1328125 -761.2265625 689.1328125 C-761.17757812 688.38515625 -761.12859375 687.6375 -761.078125 686.8671875 C-761.00335937 685.88234375 -760.92859375 684.8975 -760.8515625 683.8828125 C-760.78195312 682.90828125 -760.71234375 681.93375 -760.640625 680.9296875 C-760.23512927 678.19067858 -759.51963511 676.54060288 -758.2265625 674.1328125 C-757.86836365 672.76900356 -757.55724384 671.39213906 -757.2890625 670.0078125 C-756.41638948 665.83534461 -755.26787532 661.80974349 -754.01171875 657.73828125 C-753.19507003 655.02830763 -752.45510381 652.30520319 -751.7265625 649.5703125 C-750.20138556 643.92239163 -748.37420828 638.41016912 -746.44140625 632.890625 C-744.65348625 627.69757094 -743.30853521 622.51721787 -742.2265625 617.1328125 C-741.5665625 617.1328125 -740.9065625 617.1328125 -740.2265625 617.1328125 C-739.8965625 614.1628125 -739.5665625 611.1928125 -739.2265625 608.1328125 C-738.5665625 608.1328125 -737.9065625 608.1328125 -737.2265625 608.1328125 C-737.2678125 607.2253125 -737.3090625 606.3178125 -737.3515625 605.3828125 C-737.22477559 602.08635276 -736.75604391 600.93686176 -735.2265625 598.1328125 C-734.75574704 596.55221775 -734.28998784 594.96986198 -733.85546875 593.37890625 C-731.57098902 585.22005006 -728.94614373 577.15557712 -726.2265625 569.1328125 C-725.5665625 569.1328125 -724.9065625 569.1328125 -724.2265625 569.1328125 C-724.2884375 568.3078125 -724.3503125 567.4828125 -724.4140625 566.6328125 C-724.17931588 562.25087554 -722.90037596 559.17786168 -721.2265625 555.1328125 C-720.5665625 555.1328125 -719.9065625 555.1328125 -719.2265625 555.1328125 C-719.2265625 553.1528125 -719.2265625 551.1728125 -719.2265625 549.1328125 C-718.5665625 549.1328125 -717.9065625 549.1328125 -717.2265625 549.1328125 C-717.0409375 547.616875 -717.0409375 547.616875 -716.8515625 546.0703125 C-716.24570915 542.25343638 -715.35462338 538.81781138 -714.2265625 535.1328125 C-713.5665625 535.1328125 -712.9065625 535.1328125 -712.2265625 535.1328125 C-712.1028125 534.2665625 -711.9790625 533.4003125 -711.8515625 532.5078125 C-711.24598129 529.23767397 -710.34350215 526.26024351 -709.2265625 523.1328125 C-708.5665625 523.1328125 -707.9065625 523.1328125 -707.2265625 523.1328125 C-707.2265625 521.1528125 -707.2265625 519.1728125 -707.2265625 517.1328125 C-706.5665625 517.1328125 -705.9065625 517.1328125 -705.2265625 517.1328125 C-705.113125 516.4315625 -704.9996875 515.7303125 -704.8828125 515.0078125 C-703.9205214 510.792061 -702.11550937 507.01924955 -700.3828125 503.0703125 C-699.33220865 500.40121083 -698.68326389 497.95605748 -698.2265625 495.1328125 C-697.5665625 495.1328125 -696.9065625 495.1328125 -696.2265625 495.1328125 C-696.09894531 494.40449219 -695.97132813 493.67617188 -695.83984375 492.92578125 C-695.25463617 490.26066394 -694.45772327 487.96090918 -693.4140625 485.4453125 C-693.06214844 484.58808594 -692.71023438 483.73085938 -692.34765625 482.84765625 C-691.97769531 481.95175781 -691.60773438 481.05585937 -691.2265625 480.1328125 C-690.47436489 478.25869304 -689.72426808 476.38372864 -688.9765625 474.5078125 C-688.39322917 473.04947917 -687.80989583 471.59114583 -687.2265625 470.1328125 C-686.5665625 470.1328125 -685.9065625 470.1328125 -685.2265625 470.1328125 C-685.2265625 468.4828125 -685.2265625 466.8328125 -685.2265625 465.1328125 C-684.5665625 465.1328125 -683.9065625 465.1328125 -683.2265625 465.1328125 C-683.2265625 463.8128125 -683.2265625 462.4928125 -683.2265625 461.1328125 C-682.5665625 461.1328125 -681.9065625 461.1328125 -681.2265625 461.1328125 C-681.1440625 460.48828125 -681.0615625 459.84375 -680.9765625 459.1796875 C-679.93954346 454.96679766 -678.1099894 451.27874361 -676.2265625 447.3828125 C-675.63077393 446.13612793 -675.63077393 446.13612793 -675.02294922 444.86425781 C-671.9215748 438.43222923 -668.64647127 432.1015128 -665.234375 425.82910156 C-662.98536762 421.67629291 -661.02575661 417.50066738 -659.2265625 413.1328125 C-658.5665625 413.1328125 -657.9065625 413.1328125 -657.2265625 413.1328125 C-657.2265625 411.8128125 -657.2265625 410.4928125 -657.2265625 409.1328125 C-656.5665625 409.1328125 -655.9065625 409.1328125 -655.2265625 409.1328125 C-655.2265625 408.1428125 -655.2265625 407.1528125 -655.2265625 406.1328125 C-654.5665625 406.1328125 -653.9065625 406.1328125 -653.2265625 406.1328125 C-653.2265625 404.8128125 -653.2265625 403.4928125 -653.2265625 402.1328125 C-652.5665625 402.1328125 -651.9065625 402.1328125 -651.2265625 402.1328125 C-651.0821875 401.5346875 -650.9378125 400.9365625 -650.7890625 400.3203125 C-650.3393186 398.57130846 -649.79763909 396.84604227 -649.2265625 395.1328125 C-648.5665625 395.1328125 -647.9065625 395.1328125 -647.2265625 395.1328125 C-647.10410156 394.56046875 -646.98164062 393.988125 -646.85546875 393.3984375 C-646.19893382 391.03328059 -645.28932738 389.06074453 -644.1640625 386.8828125 C-643.80183594 386.17640625 -643.43960938 385.47 -643.06640625 384.7421875 C-642.78925781 384.21109375 -642.51210938 383.68 -642.2265625 383.1328125 C-641.5665625 383.1328125 -640.9065625 383.1328125 -640.2265625 383.1328125 C-640.2265625 381.8128125 -640.2265625 380.4928125 -640.2265625 379.1328125 C-639.5665625 379.1328125 -638.9065625 379.1328125 -638.2265625 379.1328125 C-638.2265625 378.1428125 -638.2265625 377.1528125 -638.2265625 376.1328125 C-637.5665625 376.1328125 -636.9065625 376.1328125 -636.2265625 376.1328125 C-636.2265625 375.1428125 -636.2265625 374.1528125 -636.2265625 373.1328125 C-635.5665625 373.1328125 -634.9065625 373.1328125 -634.2265625 373.1328125 C-634.12472656 372.59140625 -634.02289062 372.05 -633.91796875 371.4921875 C-633.04898643 368.52684669 -631.67183959 366.07756304 -630.1640625 363.3828125 C-629.61621094 362.39796875 -629.06835938 361.413125 -628.50390625 360.3984375 C-628.08238281 359.65078125 -627.66085937 358.903125 -627.2265625 358.1328125 C-626.5665625 358.1328125 -625.9065625 358.1328125 -625.2265625 358.1328125 C-624.9996875 357.4934375 -624.7728125 356.8540625 -624.5390625 356.1953125 C-622.74090424 351.99960989 -620.48752229 348.09380694 -618.2265625 344.1328125 C-617.5665625 344.1328125 -616.9065625 344.1328125 -616.2265625 344.1328125 C-615.9584375 343.4109375 -615.6903125 342.6890625 -615.4140625 341.9453125 C-614.22754888 339.13514867 -612.95170611 336.64864693 -611.2265625 334.1328125 C-610.5665625 334.1328125 -609.9065625 334.1328125 -609.2265625 334.1328125 C-609.2265625 333.1428125 -609.2265625 332.1528125 -609.2265625 331.1328125 C-608.5665625 331.1328125 -607.9065625 331.1328125 -607.2265625 331.1328125 C-606.9584375 330.4109375 -606.6903125 329.6890625 -606.4140625 328.9453125 C-605.22754888 326.13514867 -603.95170611 323.64864693 -602.2265625 321.1328125 C-601.5665625 321.1328125 -600.9065625 321.1328125 -600.2265625 321.1328125 C-599.9584375 320.4109375 -599.6903125 319.6890625 -599.4140625 318.9453125 C-598.22754888 316.13514867 -596.95170611 313.64864693 -595.2265625 311.1328125 C-594.5665625 311.1328125 -593.9065625 311.1328125 -593.2265625 311.1328125 C-593.2265625 310.4728125 -593.2265625 309.8128125 -593.2265625 309.1328125 C-592.5665625 309.1328125 -591.9065625 309.1328125 -591.2265625 309.1328125 C-590.9171875 308.3490625 -590.6078125 307.5653125 -590.2890625 306.7578125 C-589.2265625 304.1328125 -589.2265625 304.1328125 -588.2265625 302.1328125 C-587.5665625 302.1328125 -586.9065625 302.1328125 -586.2265625 302.1328125 C-585.824375 301.2975 -585.824375 301.2975 -585.4140625 300.4453125 C-584.11756754 297.92055916 -582.80179927 295.49566766 -581.2265625 293.1328125 C-580.5665625 293.1328125 -579.9065625 293.1328125 -579.2265625 293.1328125 C-578.9171875 292.5140625 -578.6078125 291.8953125 -578.2890625 291.2578125 C-577.6015625 289.8828125 -576.9140625 288.5078125 -576.2265625 287.1328125 C-575.5665625 287.1328125 -574.9065625 287.1328125 -574.2265625 287.1328125 C-573.9171875 286.3490625 -573.6078125 285.5653125 -573.2890625 284.7578125 C-572.2265625 282.1328125 -572.2265625 282.1328125 -571.2265625 280.1328125 C-570.5665625 280.1328125 -569.9065625 280.1328125 -569.2265625 280.1328125 C-569.2265625 279.4728125 -569.2265625 278.8128125 -569.2265625 278.1328125 C-568.5665625 278.1328125 -567.9065625 278.1328125 -567.2265625 278.1328125 C-566.9584375 277.56046875 -566.6903125 276.988125 -566.4140625 276.3984375 C-565.18523614 274.05396616 -563.80134074 272.00876312 -562.2265625 269.8828125 C-561.453125 268.82320313 -561.453125 268.82320313 -560.6640625 267.7421875 C-560.1896875 267.21109375 -559.7153125 266.68 -559.2265625 266.1328125 C-558.5665625 266.1328125 -557.9065625 266.1328125 -557.2265625 266.1328125 C-556.7625 265.2046875 -556.7625 265.2046875 -556.2890625 264.2578125 C-555.6015625 262.8828125 -554.9140625 261.5078125 -554.2265625 260.1328125 C-553.5665625 260.1328125 -552.9065625 260.1328125 -552.2265625 260.1328125 C-552.2265625 259.4728125 -552.2265625 258.8128125 -552.2265625 258.1328125 C-551.5665625 258.1328125 -550.9065625 258.1328125 -550.2265625 258.1328125 C-549.8965625 256.8128125 -549.5665625 255.4928125 -549.2265625 254.1328125 C-548.5665625 254.1328125 -547.9065625 254.1328125 -547.2265625 254.1328125 C-547.2265625 253.4728125 -547.2265625 252.8128125 -547.2265625 252.1328125 C-545.8515625 250.5078125 -545.8515625 250.5078125 -544.2265625 249.1328125 C-543.5665625 249.1328125 -542.9065625 249.1328125 -542.2265625 249.1328125 C-541.9584375 248.55015625 -541.6903125 247.9675 -541.4140625 247.3671875 C-540.21175259 245.10494649 -538.88830337 243.32704932 -537.2265625 241.3828125 C-536.7109375 240.76921875 -536.1953125 240.155625 -535.6640625 239.5234375 C-534.2265625 238.1328125 -534.2265625 238.1328125 -532.2265625 238.1328125 C-531.97390625 237.55144531 -531.72125 236.97007812 -531.4609375 236.37109375 C-530.08278185 233.87209632 -528.54072325 232.28446546 -526.4765625 230.3203125 C-523.89065932 227.80895788 -521.45386324 225.29137081 -519.1640625 222.5078125 C-516.64959268 219.5013812 -513.89895131 217.02876224 -510.8828125 214.53515625 C-509.41000993 213.2881371 -508.02865111 211.93490111 -506.6640625 210.5703125 C-504.81283171 208.71908171 -502.99903387 207.08827024 -500.9765625 205.4453125 C-498.20914056 203.4285803 -498.20914056 203.4285803 -497.2265625 201.1328125 C-496.5665625 201.1328125 -495.9065625 201.1328125 -495.2265625 201.1328125 C-495.2265625 200.4728125 -495.2265625 199.8128125 -495.2265625 199.1328125 C-493.71429183 197.8026016 -492.13987226 196.54253659 -490.5390625 195.3203125 C-487.6316642 193.06174038 -484.8227124 190.86972073 -482.2890625 188.1953125 C-480.2265625 186.1328125 -480.2265625 186.1328125 -477.2265625 185.1328125 C-476.8965625 184.1428125 -476.5665625 183.1528125 -476.2265625 182.1328125 C-474.47367194 180.50372159 -472.65083073 178.94876903 -470.7890625 177.4453125 C-469.80035156 176.63707031 -468.81164062 175.82882812 -467.79296875 174.99609375 C-465.2265625 173.1328125 -465.2265625 173.1328125 -463.2265625 173.1328125 C-463.2265625 172.4728125 -463.2265625 171.8128125 -463.2265625 171.1328125 C-459.76502404 168.1328125 -459.76502404 168.1328125 -457.2265625 168.1328125 C-457.2265625 167.4728125 -457.2265625 166.8128125 -457.2265625 166.1328125 C-455.17121959 164.59427547 -453.12050156 163.16262054 -450.9765625 161.7578125 C-447.03508471 159.15903593 -443.5261866 156.52671157 -440.2265625 153.1328125 C-428.97104426 144.17718344 -417.04711984 135.92390888 -405.04296875 128.01171875 C-402.29849655 126.18080179 -399.60349137 124.29340224 -396.9140625 122.3828125 C-394.21954442 120.48206169 -391.54434277 118.67560632 -388.6640625 117.0703125 C-386.00851892 115.57355157 -383.5512269 114.03110546 -381.0390625 112.3203125 C-375.58660336 108.65509871 -369.93309758 105.38262681 -364.2265625 102.1328125 C-363.34967773 101.63233398 -362.47279297 101.13185547 -361.56933594 100.61621094 C-358.5403112 98.88921474 -355.50887472 97.16652938 -352.4765625 95.4453125 C-351.49413574 94.88642334 -350.51170898 94.32753418 -349.49951172 93.75170898 C-344.71565262 91.04533977 -339.92016244 88.42592865 -334.984375 86.00756836 C-332.30983554 84.67661351 -329.71459046 83.20512874 -327.1015625 81.7578125 C-307.85918275 71.40577261 -287.74308518 62.77691307 -267.5390625 54.5078125 C-266.70503906 54.1662915 -265.87101563 53.82477051 -265.01171875 53.47290039 C-251.47371995 47.94301285 -237.82678059 42.93202435 -223.95678711 38.29614258 C-221.79459166 37.57216386 -219.63462263 36.84178751 -217.47460938 36.11132812 C-210.271458 33.69244086 -203.10427461 31.48888674 -195.70483398 29.73022461 C-192.74831787 29.01752685 -189.86790227 28.13620938 -186.9765625 27.1953125 C-172.42826581 22.65112957 -157.49684473 19.53313048 -142.55078125 16.609375 C-139.7589574 16.03693381 -136.99695364 15.36366936 -134.2265625 14.6953125 C-128.71074405 13.41241989 -123.21615297 12.47224105 -117.61328125 11.66796875 C-113.93323109 11.0864614 -110.30929899 10.33949084 -106.6640625 9.5703125 C-101.03735654 8.41238645 -95.54482863 7.6809458 -89.8125 7.34375 C-87.2114363 7.13157864 -84.78375236 6.64725451 -82.2265625 6.1328125 C-79.58113814 5.79612213 -76.93981577 5.48237766 -74.2890625 5.1953125 C-73.12346802 5.06781616 -73.12346802 5.06781616 -71.93432617 4.93774414 C-58.31700125 3.4739926 -44.67539744 2.20696938 -31.00390625 1.37890625 C-28.83920852 1.23787631 -26.67506039 1.0843992 -24.51408386 0.8946991 C-16.32759122 0.19221634 -8.2138835 -0.01348815 0 0 Z M481.7734375 1725.1328125 C482.7734375 1727.1328125 482.7734375 1727.1328125 482.7734375 1727.1328125 Z " fill="#FEFEFE" transform="translate(978.2265625,116.8671875)"/>
<path d="M0 0 C1.78954102 0.00193359 1.78954102 0.00193359 3.61523438 0.00390625 C12.8040589 0.0948347 21.15898 1.24500341 29.8125 4.375 C30.72128906 4.62830078 30.72128906 4.62830078 31.6484375 4.88671875 C39.57978084 7.20125575 46.64385401 11.35277329 53.8125 15.375 C54.71742188 15.87644531 55.62234375 16.37789062 56.5546875 16.89453125 C58.88163923 18.42033524 60.41369292 19.92960514 62.1875 22.0625 C62.78046875 22.76761719 63.3734375 23.47273437 63.984375 24.19921875 C64.58765625 24.91722656 65.1909375 25.63523437 65.8125 26.375 C67.0200805 27.70901521 68.22840017 29.04236171 69.4375 30.375 C78.94569905 41.36225224 83.86663739 55.19682735 88.625 68.75 C88.91487793 69.53785889 89.20475586 70.32571777 89.50341797 71.13745117 C94.86790661 86.98908836 94.10590562 104.31115371 94.01831055 120.81542969 C94.00002976 124.36921398 93.99780192 127.92273594 93.99804688 131.4765625 C93.97316412 149.05511974 93.89729276 166.2341043 90.25 183.5 C90.01603516 184.65886719 89.78207031 185.81773437 89.54101562 187.01171875 C88.97604398 189.80198689 88.39998099 192.58940144 87.8125 195.375 C87.1525 195.375 86.4925 195.375 85.8125 195.375 C85.85375 196.509375 85.895 197.64375 85.9375 198.8125 C85.94584549 203.48597366 85.15370542 207.90105198 83.8125 212.375 C83.4825 212.705 83.1525 213.035 82.8125 213.375 C82.48172419 215.28170132 82.1561264 217.18949424 81.86108398 219.10205078 C80.75167833 226.27755752 79.45905873 232.02292996 75.8125 238.375 C75.13991333 240.70663378 74.47402556 243.0402039 73.8125 245.375 C72.59709588 248.4073719 71.32429433 251.41013572 70.03125 254.41015625 C68.78216764 257.32694922 68.78216764 257.32694922 67.91796875 260.234375 C66.51241349 264.2275426 64.624876 267.83876601 62.625 271.5625 C62.02389404 272.68688477 62.02389404 272.68688477 61.41064453 273.83398438 C56.30390272 283.2874515 50.60239828 292.04194302 43.8125 300.375 C43.09707031 301.25865234 43.09707031 301.25865234 42.3671875 302.16015625 C37.94977811 307.54304734 37.94977811 307.54304734 35.8125 309.375 C35.1525 309.375 34.4925 309.375 33.8125 309.375 C33.8125 310.035 33.8125 310.695 33.8125 311.375 C31.65859994 313.08975539 29.50679308 314.68144878 27.25 316.25 C26.64091797 316.68441406 26.03183594 317.11882812 25.40429688 317.56640625 C5.69147282 331.45925368 -16.43750488 333.91891045 -39.875 330.125 C-46.33368004 328.97021543 -52.27950393 327.29034759 -58.1875 324.375 C-58.86683594 324.0553125 -59.54617188 323.735625 -60.24609375 323.40625 C-61.57824755 322.76224582 -62.90026468 322.09682348 -64.2109375 321.41015625 C-65.53256573 320.71799917 -66.87204868 320.05895358 -68.2265625 319.43359375 C-80.28275599 313.49317841 -91.29949659 301.76669794 -98.1875 290.375 C-98.1875 289.715 -98.1875 289.055 -98.1875 288.375 C-98.8475 288.375 -99.5075 288.375 -100.1875 288.375 C-108.64510238 272.57508347 -114.17247537 257.05679271 -116.76123047 239.28808594 C-117.05704573 237.26651223 -117.38101473 235.24893692 -117.72705078 233.23535156 C-119.48681449 222.10215256 -119.49184152 211.05136238 -119.44824219 199.80273438 C-119.43745282 196.48549409 -119.44822783 193.16878713 -119.4609375 189.8515625 C-119.45961688 187.71614465 -119.45705652 185.58072714 -119.453125 183.4453125 C-119.45919769 181.9778508 -119.45919769 181.9778508 -119.46539307 180.48074341 C-119.43003877 175.25457697 -118.95916209 170.52398666 -117.69494629 165.45233154 C-116.92549665 162.30243757 -116.49512346 159.11846254 -116.0390625 155.91015625 C-115.83879644 154.52762054 -115.63818174 153.14513529 -115.43725586 151.76269531 C-115.33540985 151.05552368 -115.23356384 150.34835205 -115.12863159 149.61975098 C-112.6425954 132.45868563 -109.53871671 115.90857987 -104.1875 99.375 C-103.836875 98.1375 -103.48625 96.9 -103.125 95.625 C-101.21910607 89.01790103 -98.9928834 82.65371522 -96.1875 76.375 C-95.5275 76.375 -94.8675 76.375 -94.1875 76.375 C-94.06246094 75.82070313 -93.93742188 75.26640625 -93.80859375 74.6953125 C-93.12141572 72.12811912 -92.22737573 69.72110091 -91.25 67.25 C-90.91097656 66.38117188 -90.57195313 65.51234375 -90.22265625 64.6171875 C-89.1875 62.375 -89.1875 62.375 -87.1875 60.375 C-86.81625 59.42625 -86.445 58.4775 -86.0625 57.5 C-82.37984269 48.57234591 -75.77412238 39.42446612 -69.1875 32.375 C-68.5275 32.375 -67.8675 32.375 -67.1875 32.375 C-66.95804688 31.81296875 -66.72859375 31.2509375 -66.4921875 30.671875 C-60.57836518 20.26071474 -46.17602387 11.39003757 -35.1875 7.375 C-33.99125 6.900625 -32.795 6.42625 -31.5625 5.9375 C-30.10659149 5.40992642 -28.64794456 4.88988364 -27.1875 4.375 C-26.27266846 4.04024658 -25.35783691 3.70549316 -24.4152832 3.3605957 C-16.10499684 0.53274016 -8.73951 -0.18117915 0 0 Z " fill="#000000" transform="translate(631.1875,641.625)"/>
<path d="M0 0 C1.67583329 0.86787071 3.42339828 1.59313181 5.17114258 2.30517578 C18.69033524 8.36550353 33.01961025 19.89158526 38.65942383 34.10595703 C39.23364258 36.05517578 39.23364258 36.05517578 39.79614258 38.93017578 C40.45614258 38.93017578 41.11614258 38.93017578 41.79614258 38.93017578 C41.79614258 40.25017578 41.79614258 41.57017578 41.79614258 42.93017578 C42.45614258 42.93017578 43.11614258 42.93017578 43.79614258 42.93017578 C46.9348718 50.13172709 49.09014665 57.27008516 50.79614258 64.93017578 C50.96146484 65.6654248 51.12678711 66.40067383 51.29711914 67.15820312 C51.84750776 69.62196635 52.3863392 72.08798492 52.92114258 74.55517578 C53.09194336 75.33046631 53.26274414 76.10575684 53.4387207 76.90454102 C55.89482735 88.50132742 56.03380554 100.05926679 56.04614258 111.86767578 C56.04781433 112.71300873 56.04948608 113.55834167 56.0512085 114.42929077 C56.0526935 127.08699663 55.53430417 139.63429505 54.42114258 152.24267578 C54.3580188 152.9688913 54.29489502 153.69510681 54.2298584 154.44332886 C52.27063903 176.45567933 52.27063903 176.45567933 49.79614258 178.93017578 C49.42751444 180.6038041 49.11063133 182.28888061 48.81567383 183.97705078 C48.62400635 185.04028564 48.43233887 186.10352051 48.23486328 187.19897461 C48.02821045 188.347771 47.82155762 189.49656738 47.60864258 190.68017578 C45.22962491 203.50560622 42.54848758 216.55589634 37.68286133 228.71142578 C36.47938288 231.72277275 35.95661209 234.76518149 35.35864258 237.94189453 C34.79614258 239.93017578 34.79614258 239.93017578 32.79614258 241.93017578 C32.13920947 243.95548046 31.54366603 246.00096209 30.98364258 248.05517578 C29.5372574 252.93538652 27.93556135 256.82829371 25.06176758 261.00048828 C23.68807001 263.0949531 22.66552371 265.2226142 21.60864258 267.49267578 C16.63147064 277.66683167 9.62003611 288.72842376 1.79614258 296.93017578 C1.13614258 296.93017578 0.47614258 296.93017578 -0.20385742 296.93017578 C-0.20385742 297.59017578 -0.20385742 298.25017578 -0.20385742 298.93017578 C-19.7432627 317.48694173 -40.9412969 323.64511479 -67.27416992 323.17236328 C-79.30243279 322.78608203 -89.43147993 320.44542685 -100.02026367 314.64892578 C-103.2220247 312.85189275 -103.2220247 312.85189275 -106.82104492 311.42236328 C-109.9169891 310.05671585 -112.16004452 308.67670488 -114.76635742 306.55517578 C-115.53077148 305.93384766 -116.29518555 305.31251953 -117.08276367 304.67236328 C-117.78272461 304.09744141 -118.48268555 303.52251953 -119.20385742 302.93017578 C-120.68885742 301.81642578 -120.68885742 301.81642578 -122.20385742 300.68017578 C-129.65577901 294.36674221 -135.85908513 285.6367587 -140.20385742 276.93017578 C-140.20385742 276.27017578 -140.20385742 275.61017578 -140.20385742 274.93017578 C-140.86385742 274.93017578 -141.52385742 274.93017578 -142.20385742 274.93017578 C-148.74980605 260.72733753 -153.76704882 247.23770184 -155.82592773 231.69287109 C-156.09595929 229.71891951 -156.40140061 227.74968112 -156.73022461 225.78466797 C-158.14621592 217.03559602 -158.51390389 208.53850349 -158.46459961 199.70166016 C-158.45399771 197.4598401 -158.46450154 195.21884486 -158.47729492 192.97705078 C-158.50005001 173.84678176 -156.14338567 154.9910034 -153.22705078 136.11157227 C-152.759858 133.07543812 -152.30855188 130.03720134 -151.8581543 126.99853516 C-151.55896229 125.03159534 -151.25886613 123.0647928 -150.95776367 121.09814453 C-150.82640518 120.20741745 -150.69504669 119.31669037 -150.55970764 118.39897156 C-149.65721782 112.65616716 -148.1707684 107.39251603 -146.20385742 101.93017578 C-145.74995376 100.58110314 -145.2997523 99.23077843 -144.85351562 97.87915039 C-141.63696289 88.22949219 -138.42041016 78.57983398 -135.20385742 68.93017578 C-134.54385742 68.93017578 -133.88385742 68.93017578 -133.20385742 68.93017578 C-133.10588867 68.35009766 -133.00791992 67.77001953 -132.90698242 67.17236328 C-131.89120789 61.86581704 -130.44392273 58.34844665 -127.20385742 53.93017578 C-126.39948242 52.32142578 -126.39948242 52.32142578 -125.57885742 50.68017578 C-124.20385742 47.93017578 -124.20385742 47.93017578 -122.20385742 45.93017578 C-121.90350586 45.16833984 -121.6031543 44.40650391 -121.29370117 43.62158203 C-116.24291275 31.14848805 -103.52574367 19.24802148 -93.20385742 10.93017578 C-92.61733398 10.43259766 -92.03081055 9.93501953 -91.42651367 9.42236328 C-85.30372576 4.47753245 -78.2937974 1.23211 -71.20385742 -2.06982422 C-70.15584961 -2.58416016 -70.15584961 -2.58416016 -69.08666992 -3.10888672 C-49.76053745 -11.612385 -18.47015309 -9.8120476 0 0 Z " fill="#000000" transform="translate(1023.203857421875,706.06982421875)"/>
<path d="" fill="#FFFFFF" transform="translate(0,0)"/>
<path d="" fill="#FFFFFF" transform="translate(0,0)"/>
<path d="" fill="#FFFFFF" transform="translate(0,0)"/>
<path d="" fill="#FFFFFF" transform="translate(0,0)"/>
<path d="" fill="#FFFFFF" transform="translate(0,0)"/>
<path d="" fill="#FFFFFF" transform="translate(0,0)"/>
<path d="" fill="#FFFFFF" transform="translate(0,0)"/>
<path d="" fill="#FFFFFF" transform="translate(0,0)"/>
<path d="" fill="#FFFFFF" transform="translate(0,0)"/>
<path d="" fill="#FFFFFF" transform="translate(0,0)"/>
<path d="" fill="#FFFFFF" transform="translate(0,0)"/>
<path d="" fill="#FFFFFF" transform="translate(0,0)"/>
<path d="" fill="#FFFFFF" transform="translate(0,0)"/>
<path d="" fill="#FFFFFF" transform="translate(0,0)"/>
<path d="" fill="#FFFFFF" transform="translate(0,0)"/>
<path d="" fill="#FFFFFF" transform="translate(0,0)"/>
<path d="" fill="#FFFFFF" transform="translate(0,0)"/>
<path d="" fill="#FFFFFF" transform="translate(0,0)"/>
<path d="" fill="#FFFFFF" transform="translate(0,0)"/>
<path d="" fill="#FFFFFF" transform="translate(0,0)"/>
<path d="" fill="#FFFFFF" transform="translate(0,0)"/>
<path d="" fill="#FFFFFF" transform="translate(0,0)"/>
<path d="" fill="#FFFFFF" transform="translate(0,0)"/>
<path d="" fill="#FFFFFF" transform="translate(0,0)"/>
<path d="" fill="#FFFFFF" transform="translate(0,0)"/>
<path d="" fill="#FFFFFF" transform="translate(0,0)"/>
<path d="" fill="#FFFFFF" transform="translate(0,0)"/>
<path d="" fill="#FFFFFF" transform="translate(0,0)"/>
<path d="" fill="#FFFFFF" transform="translate(0,0)"/>
<path d="" fill="#FFFFFF" transform="translate(0,0)"/>
<path d="" fill="#FFFFFF" transform="translate(0,0)"/>
<path d="" fill="#FFFFFF" transform="translate(0,0)"/>
<path d="" fill="#FFFFFF" transform="translate(0,0)"/>
<path d="" fill="#FFFFFF" transform="translate(0,0)"/>
<path d="" fill="#FFFFFF" transform="translate(0,0)"/>
<path d="" fill="#FFFFFF" transform="translate(0,0)"/>
<path d="" fill="#FFFFFF" transform="translate(0,0)"/>
<path d="" fill="#FFFFFF" transform="translate(0,0)"/>
</svg>
